<svg width="1045" height="2088" viewBox="0 0 1045 2088" fill="none" xmlns="http://www.w3.org/2000/svg">
<path d="M801.07 414.122L958.15 290.682L977.46 308.212L840.66 460.142L801.07 414.122Z" fill="#DDA292"/>
<path d="M576.3 2004.29C576.3 2004.29 534.8 1957.7 538.58 1950.4C542.36 1943.11 555.48 1931.61 560.79 1932.04C566.1 1932.47 608.47 1977.12 607.38 1986.96C606.29 1996.8 587.68 2013.11 576.3 2004.29Z" fill="#EDB29F"/>
<path d="M520.09 2075.54L516.23 2079.47C516.23 2079.47 518.58 2086.05 522.33 2087.1C526.08 2088.15 548.78 2080.79 583.83 2053.8C618.88 2026.82 630.94 2008.89 625.54 2003.09C620.15 1997.29 546.26 2079.23 520.09 2075.54Z" fill="#252B4C"/>
<path d="M625.55 2003.09C589.57 2053.15 509.95 2093.06 516.14 2076.92C517.51 2073.38 520.96 2068.67 525.41 2063.33C541.29 2044.37 570.04 2017.51 563.79 2007.12C555.78 1993.81 561.07 1987.17 562.92 1986.53C563.4 1986.37 564.76 1986.03 566.57 1985.45C571.87 1983.78 581.05 1980.16 583.44 1973.43C586.66 1964.4 587.23 1963.21 592.13 1964.04C606.5 1966.48 611.45 1973.77 625.55 2003.09Z" fill="#3E4268"/>
<path d="M566.56 1985.45C568.05 1988.84 569.17 1993.1 569.65 1996.92C570.81 2006.5 578.68 2006.63 576.21 2027.06C573.75 2047.48 541.21 2061.6 531.15 2064.82C525.23 2066.71 524.78 2065.03 525.4 2063.32C541.28 2044.36 570.03 2017.5 563.78 2007.11C555.77 1993.8 561.06 1987.16 562.91 1986.52C563.39 1986.37 564.75 1986.03 566.56 1985.45ZM480.85 1182.97C480.85 1182.97 449.24 1662.69 589.89 1937.74L537.82 1978.22C537.82 1978.22 205.28 1579.5 194.93 1098.7L480.85 1182.97Z" fill="#252B4C"/>
<path d="M937.16 1743.26C937.16 1743.26 878.32 1722.5 878.11 1714.29C877.9 1706.08 883.83 1689.67 888.7 1687.49C893.56 1685.3 952.22 1703.94 956.01 1713.09C959.8 1722.23 951.38 1745.49 937.16 1743.26Z" fill="#EDB29F"/>
<path d="M922.34 1832.8L920.85 1838.11C920.85 1838.11 926.08 1842.73 929.87 1841.84C933.66 1840.95 949.98 1823.54 967.65 1782.99C985.32 1742.43 987.22 1720.92 979.7 1718.44C972.18 1715.96 947.03 1823.4 922.34 1832.8Z" fill="#252B4C"/>
<path d="M979.7 1718.44C972.37 1779.65 921.91 1853.04 919.54 1835.92C919.03 1832.15 919.77 1826.37 921.1 1819.54C925.85 1795.27 938.06 1757.87 927.57 1751.79C914.13 1744 915.56 1735.64 916.87 1734.18C917.21 1733.81 918.23 1732.85 919.54 1731.48C923.37 1727.45 929.67 1719.85 928.51 1712.81C926.96 1703.35 926.89 1702.03 931.58 1700.39C945.34 1695.58 953.2 1699.57 979.7 1718.44Z" fill="#3E4268"/>
<path d="M919.53 1731.47C922.47 1733.72 925.52 1736.91 927.77 1740.03C933.41 1747.86 940.37 1744.18 948.07 1763.26C955.78 1782.33 934.1 1810.4 926.85 1818.08C922.58 1822.59 921.37 1821.34 921.1 1819.54C925.85 1795.27 938.06 1757.87 927.57 1751.79C914.13 1744 915.56 1735.64 916.87 1734.18C917.2 1733.81 918.22 1732.85 919.53 1731.47Z" fill="#252B4C"/>
<path d="M518.42 980.082C518.42 980.082 550.66 1434.78 923.1 1685.03L893.18 1736.92C893.18 1736.92 326.23 1586.14 285.55 1080.91L518.42 980.082Z" fill="#3E4268"/>
<path d="M847.3 467.882L799.38 397.212C799.38 397.212 617.86 582.022 426.7 525.142C235.54 468.262 110.31 285.632 110.31 285.632L69.8101 294.012C69.8101 294.012 90.8601 549.112 235.86 647.212C235.86 647.212 114.25 884.852 176.27 1126.11C188.9 1175.24 629.54 1046.37 580.84 993.682C455.25 857.792 508.4 700.522 508.4 700.522C508.4 700.522 708.59 689.792 847.3 467.882Z" fill="#D9CDD5"/>
<g opacity="0.15">
<path opacity="0.15" d="M358.99 540.232C377.92 539.372 394.73 531.152 409.39 519.592C318.64 488.422 243.9 429.902 191.79 379.172C214.82 412.272 236.01 446.392 261.9 477.452C286.36 506.762 317.07 542.122 358.99 540.232ZM847.3 467.872L807.82 409.652C798.01 435.262 804.63 462.222 796.91 488.082C790.64 509.102 772.64 522.322 754.39 532.642C730.09 546.372 703.96 556.462 678.76 568.382C651.56 581.242 626.42 596.442 600.68 611.892C578.5 625.212 553.81 633.062 530.06 642.972C511.24 650.822 491.19 659.212 479.52 676.812C461.34 704.232 464.97 742.262 466.21 773.472C467.53 806.842 470.18 843.082 456.41 874.482C442.37 906.482 413.07 925.002 380.02 933.012C344.87 941.522 307.8 939.702 271.98 938.212C234.8 936.662 197.48 936.382 160.22 936.462C156.23 996.372 159.54 1061.09 176.25 1126.11C188.88 1175.24 629.52 1046.37 580.82 993.672C455.23 857.772 508.38 700.512 508.38 700.512C508.38 700.512 708.59 689.792 847.3 467.872Z" fill="#252B4C"/>
</g>
<path d="M465.86 348.892C468.22 349.212 402.32 327.152 426.92 304.922C471.17 264.932 461.73 310.092 499.59 301.692C537.41 304.362 521.97 327.862 521.97 327.862C521.97 327.862 536.56 331.912 548.63 359.282C560.7 386.652 534.79 405.522 534.79 405.522C534.79 405.522 554.2 414.052 550.58 434.802C546.11 460.402 487.69 440.132 494.84 467.992C501.99 495.852 486.05 522.882 443.98 478.362C401.91 433.842 475.4 436.002 446.64 416.402C417.89 396.792 445.41 346.072 465.86 348.892ZM355.61 528.872C362.43 509.522 389.28 495.752 415.59 498.132C441.89 500.512 457.69 518.122 450.87 537.472C444.05 556.832 417.2 570.592 390.89 568.222C364.58 565.842 348.79 548.232 355.61 528.872Z" fill="#252B4C"/>
<path d="M389.65 478.292L375.38 532.372C375.38 532.372 419 550.292 438.91 529.262L438.4 476.042L389.65 478.292Z" fill="#EDB29F"/>
<path opacity="0.5" d="M438.39 476.032C432.79 491.062 384.91 504.192 385.25 518.612C385.42 525.912 391.76 531.412 397.96 534.712C402.07 536.902 406.55 538.382 411.15 539.342C393.54 541.852 375.37 532.362 375.37 532.362L389.64 478.282L438.39 476.032Z" fill="#DDA292"/>
<path d="M390.94 480.022C350.35 472.152 350.05 440.962 362.08 409.052C363.88 404.222 366.03 399.372 368.31 394.552C384.52 360.462 410.08 329.522 410.08 329.522C410.08 329.522 471.98 356.432 498.4 387.972C498.4 387.982 481.28 497.592 390.94 480.022Z" fill="#EDB29F"/>
<path d="M483.79 402.142C483.79 402.142 498.51 394.572 504.54 403.132C510.57 411.692 486.11 449.192 475.04 435.092C463.97 420.992 483.79 402.142 483.79 402.142Z" fill="#EDB29F"/>
<path d="M485.72 409.132C486.17 409.292 486.69 409.182 487.04 408.822C487.08 408.782 491.38 404.332 495.37 404.802C497.1 405.012 498.54 406.112 499.75 408.182C500.1 408.772 500.86 408.972 501.45 408.622C502.04 408.272 502.24 407.512 501.89 406.922C500.27 404.172 498.18 402.612 495.64 402.332C490.41 401.732 485.43 406.892 485.23 407.112C484.76 407.612 484.78 408.392 485.27 408.872C485.41 408.982 485.56 409.072 485.72 409.132ZM431.36 407.052C431.81 407.212 432.33 407.102 432.68 406.742C432.72 406.702 437.02 402.252 441.01 402.722C442.74 402.932 444.18 404.032 445.39 406.102C445.74 406.692 446.5 406.892 447.09 406.542C447.68 406.192 447.88 405.432 447.54 404.842C445.92 402.092 443.83 400.542 441.29 400.252C436.06 399.652 431.09 404.812 430.88 405.032C430.41 405.532 430.43 406.312 430.92 406.782C431.04 406.912 431.19 407.002 431.36 407.052ZM380.82 391.902C381.27 392.062 381.79 391.952 382.14 391.582C382.18 391.542 386.48 387.092 390.48 387.562C392.21 387.772 393.65 388.872 394.86 390.942C395.21 391.532 395.97 391.732 396.56 391.392C397.15 391.042 397.35 390.282 397 389.692C395.38 386.942 393.29 385.382 390.75 385.102C385.52 384.502 380.54 389.662 380.34 389.882C379.87 390.382 379.89 391.162 380.38 391.642C380.51 391.752 380.66 391.852 380.82 391.902ZM455.78 399.052C455.78 399.052 434.12 393.322 432.37 390.702C430.62 388.082 438.44 384.982 447.57 389.462C456.7 393.942 458.3 399.512 455.78 399.052ZM400.34 379.282C400.34 379.282 378.68 373.552 376.93 370.932C375.18 368.312 383 365.212 392.13 369.692C401.27 374.172 402.86 379.732 400.34 379.282ZM403.37 413.292C403.77 413.432 404.23 413.372 404.57 413.082C405.09 412.642 405.16 411.872 404.72 411.352C402.68 408.902 402.56 407.842 402.67 407.422C402.9 406.562 404.79 405.882 406.78 405.172C407.99 404.742 409.37 404.242 410.73 403.602C417.17 400.532 420.47 387.272 420.61 386.712C420.77 386.052 420.37 385.382 419.71 385.222C419.05 385.062 418.39 385.462 418.22 386.122C417.36 389.642 414.15 399.242 409.67 401.372C408.42 401.972 407.17 402.412 405.95 402.852C403.22 403.832 400.86 404.672 400.29 406.772C399.85 408.402 400.63 410.302 402.82 412.922C402.99 413.102 403.17 413.222 403.37 413.292Z" fill="#252B4C"/>
<path d="M375.2 427.162C374.77 427.132 374.33 427.212 373.92 427.422C372.79 428.022 372.35 429.422 372.95 430.562C373.11 430.862 376.95 437.972 385.8 440.362C393.34 442.412 402.02 440.412 411.61 434.452C412.7 433.772 413.03 432.342 412.36 431.252C411.68 430.162 410.25 429.832 409.16 430.512C400.71 435.762 393.26 437.572 387.02 435.882C380.1 434.012 377.1 428.452 377.07 428.402C376.68 427.662 375.96 427.222 375.2 427.162Z" fill="#252B4C"/>
<path opacity="0.5" d="M424.99 430.082C424.04 435.422 429.57 440.862 437.34 442.242C445.11 443.622 452.17 440.402 453.11 435.072C454.06 429.732 448.53 424.292 440.76 422.912C433 421.532 425.94 424.742 424.99 430.082ZM377.61 404.072C376.85 408.342 371.24 410.942 364.99 409.842C363.94 409.652 362.96 409.412 362.08 409.052C363.88 404.222 366.03 399.372 368.31 394.552C374.27 395.752 378.34 399.932 377.61 404.072Z" fill="#DDA292"/>
<path d="M396.67 344.902C396.67 344.902 371.89 336.192 382.63 310.382C393.1 285.212 429.02 286.882 431.14 300.242C397.02 313.092 460 319.862 464.67 336.102C469.35 352.342 495.48 357.882 499.77 372.242C504.07 386.602 501.69 399.722 496 398.742C490.3 397.762 475.26 417.862 471.66 402.362C468.06 386.872 481.59 360.262 454.28 368.412C426.99 376.562 437.95 337.312 396.67 344.902Z" fill="#252B4C"/>
<path d="M783 411.582C786.71 427.412 829.91 491.282 839.27 487.182C848.63 483.082 884.93 453.182 880.68 438.682C876.43 424.182 834.04 370.542 821.43 373.492C808.82 376.432 783 411.582 783 411.582Z" fill="#252B4C"/>
<path d="M30.4702 187.282L77.2102 317.002L115.05 300.332L58.1501 184.272L30.4702 187.282Z" fill="#DDA292"/>
<path d="M63.7401 294.462C67.4901 288.422 92.54 268.402 113.27 278.112C134 287.822 127.87 305.822 127.87 305.822C127.87 305.822 80.26 327.992 68.79 334.202C57.32 340.422 57.7501 304.102 63.7401 294.462Z" fill="#252B4C"/>
<path d="M15.0803 172.932C15.0803 172.932 -2.33965 132.482 9.60035 136.272C21.5403 140.062 36.5803 161.552 36.5803 161.552L15.0803 172.932ZM994.87 308.212C994.87 308.212 1031.01 273.682 1016.86 272.342C1002.71 271.002 977.46 286.772 977.46 286.772L994.87 308.212Z" fill="#DDA292"/>
<path d="M996.86 126.562C697.31 23.1017 379.66 -17.6183 63.7002 6.95174C24.6802 9.97174 -3.63986 42.0717 0.380141 77.2417C2.34014 95.2717 4.29014 113.302 6.25014 131.332C10.2701 166.532 42.3102 191.802 77.8602 189.062C368.83 166.432 661.37 203.932 937.23 299.212C970.93 310.832 1008.31 294.462 1021.08 261.412C1027.52 244.462 1033.96 227.502 1040.4 210.552C1053.17 177.532 1033.85 139.322 996.86 126.562Z" fill="#D9CDD5"/>
<path d="M64.4802 181.882C61.3102 178.322 50.3602 182.232 50.3602 182.232C50.3602 182.232 63.4402 176.102 61.4402 171.112C59.5802 166.472 49.8902 171.072 46.5802 172.472C50.2902 170.742 58.7902 164.792 56.2702 160.112C53.8902 155.682 38.6502 161.352 38.6502 161.352C38.6502 161.352 51.0502 154.352 48.5202 149.242C45.4302 143.012 24.5402 152.842 17.1902 156.262C11.7502 158.802 2.08021 171.572 13.4502 172.042C13.4502 172.042 7.56016 177.512 11.6502 182.722C15.8102 188.022 20.1502 182.092 20.1502 182.092C20.1502 182.092 14.9501 187.382 19.1301 192.942C21.7901 196.472 26.8902 193.462 26.8902 193.462C26.8902 193.462 24.2902 199.552 30.3502 201.292C39.3702 203.882 69.2602 187.252 64.4802 181.882Z" fill="#EDB29F"/>
<path opacity="0.2" d="M40.9702 149.932L44.0402 154.472C44.0402 154.472 48.3002 151.822 47.5302 149.772C46.7702 147.722 40.9702 149.932 40.9702 149.932ZM48.6501 160.972C48.6501 160.972 49.8802 165.602 51.1802 165.512C52.4702 165.422 55.3102 163.352 54.5502 161.362C53.7902 159.372 48.9901 160.492 48.6501 160.972ZM55.0302 170.682C55.0302 170.682 55.0502 174.422 57.3102 175.572C57.3102 175.572 61.7702 173.822 60.7402 171.532C59.7202 169.242 55.0302 170.682 55.0302 170.682ZM59.2202 182.012C59.2202 182.012 59.2802 184.632 61.4802 186.342C61.4802 186.342 64.5202 184.862 63.5402 182.762C62.5602 180.662 59.2202 182.012 59.2202 182.012Z" fill="white"/>
<path d="M939.3 295.652C944.19 293.332 953.89 302.272 953.89 302.272C953.89 302.272 942.95 290.072 947.25 285.742C951.25 281.712 959.34 290.832 962.17 293.752C959.07 290.292 952.82 280.322 957.53 276.542C961.98 272.972 975.38 285.652 975.38 285.652C975.38 285.652 965.53 272.842 970.44 268.622C976.44 263.482 993.89 283.022 1000.05 289.852C1004.61 294.912 1009.05 312.542 996.96 307.992C996.96 307.992 1000.68 316.322 994.1 319.952C987.41 323.642 985.5 315.522 985.5 315.522C985.5 315.522 988.59 323.362 981.76 327.312C977.42 329.822 973.43 324.412 973.43 324.412C973.43 324.412 973.45 331.922 966.34 331.052C955.77 329.772 931.93 299.142 939.3 295.652Z" fill="#EDB29F"/>
<path opacity="0.2" d="M978.03 272.702L972.81 276.082C972.81 276.082 969.54 271.422 971.25 269.622C972.95 267.822 978.03 272.702 978.03 272.702ZM965.12 280.832C965.12 280.832 961.78 285.122 960.47 284.452C959.16 283.782 957.11 280.362 958.79 278.622C960.45 276.872 964.97 280.182 965.12 280.832ZM954.14 288.152C954.14 288.152 952.46 292.052 949.58 292.252C949.58 292.252 945.7 288.452 947.79 286.512C949.89 284.562 954.14 288.152 954.14 288.152ZM944.73 298.122C944.73 298.122 943.5 300.832 940.45 301.642C940.45 301.642 937.93 298.742 939.88 296.992C941.85 295.232 944.73 298.122 944.73 298.122Z" fill="white"/>
<g filter="url(#filter0_d_186_180)">
<path d="M129.11 141.572L98.8591 46.4285L110.235 46.3583L135.208 126.27L160.346 46.0493L172.73 45.9729L198.855 125.877L222.841 45.6639L234.217 45.5937L205.141 141.103L192.901 141.178L166.632 61.2748L141.35 141.496L129.11 141.572ZM245.461 140.854L244.84 40.0561L255.64 39.9895L255.886 80.0208C258.457 76.5488 261.607 73.6014 265.336 71.1783C269.065 68.7553 273.858 67.5257 279.714 67.4896C284.705 67.4588 289.369 68.6301 293.704 71.0034C298.134 73.2801 301.707 76.7621 304.424 81.4495C307.236 86.0402 308.664 91.7435 308.706 98.5594L308.964 140.463L298.164 140.529L297.908 98.914C297.867 92.3861 295.963 87.1658 292.195 83.2529C288.426 79.2441 283.566 77.258 277.614 77.2947C273.582 77.3196 269.94 78.2541 266.687 80.0982C263.434 81.9423 260.81 84.5505 258.815 87.9229C256.915 91.1986 255.979 94.9965 256.005 99.3164L256.261 140.788L245.461 140.854ZM358.277 141.311C350.981 141.356 344.635 139.763 339.239 136.532C333.842 133.205 329.687 128.719 326.772 123.072C323.857 117.426 322.378 111.195 322.336 104.379C322.294 97.4676 323.695 91.2188 326.541 85.6332C329.386 79.9515 333.486 75.4621 338.842 72.1651C344.197 68.772 350.523 67.0529 357.819 67.0079C365.21 66.9623 371.557 68.6032 376.857 71.9306C382.253 75.1614 386.409 79.5999 389.324 85.246C392.238 90.7961 393.716 97.0271 393.759 103.939C393.801 110.755 392.4 117.004 389.555 122.685C386.71 128.367 382.609 132.904 377.254 136.297C371.994 139.594 365.669 141.265 358.277 141.311ZM358.216 131.519C363.592 131.486 368.097 130.21 371.729 127.691C375.458 125.172 378.269 121.843 380.164 117.703C382.058 113.467 382.989 108.902 382.959 104.006C382.928 99.0137 381.94 94.4597 379.995 90.3436C378.049 86.2275 375.197 82.9331 371.438 80.4602C367.774 77.9867 363.255 76.7666 357.879 76.7997C352.599 76.8323 348.095 78.1081 344.366 80.6271C340.638 83.1462 337.826 86.4756 335.932 90.6153C334.037 94.7551 333.105 99.3209 333.136 104.313C333.166 109.209 334.154 113.763 336.1 117.975C338.046 122.091 340.898 125.385 344.658 127.858C348.417 130.331 352.937 131.551 358.216 131.519Z" fill="black"/>
<path d="M129.11 141.572L128.157 141.875L128.38 142.576L129.117 142.572L129.11 141.572ZM98.8591 46.4285L98.853 45.4285L97.4945 45.4369L97.9061 46.7315L98.8591 46.4285ZM110.235 46.3583L111.189 46.06L110.969 45.3538L110.229 45.3583L110.235 46.3583ZM135.208 126.27L134.254 126.568L135.207 129.618L136.162 126.569L135.208 126.27ZM160.346 46.0493L160.34 45.0493L159.61 45.0538L159.392 45.7503L160.346 46.0493ZM172.73 45.9729L173.68 45.6621L173.453 44.9684L172.724 44.9729L172.73 45.9729ZM198.855 125.877L197.904 126.188L198.898 129.225L199.813 126.164L198.855 125.877ZM222.841 45.6639L222.835 44.6639L222.095 44.6685L221.883 45.3774L222.841 45.6639ZM234.217 45.5937L235.173 45.885L235.569 44.5854L234.21 44.5938L234.217 45.5937ZM205.141 141.103L205.147 142.103L205.883 142.098L206.098 141.394L205.141 141.103ZM192.901 141.178L191.951 141.491L192.179 142.183L192.907 142.178L192.901 141.178ZM166.632 61.2748L167.582 60.9625L166.612 58.0117L165.678 60.9742L166.632 61.2748ZM141.35 141.496L141.356 142.496L142.085 142.492L142.304 141.797L141.35 141.496ZM130.063 141.269L99.8121 46.1255L97.9061 46.7315L128.157 141.875L130.063 141.269ZM98.8653 47.4284L110.241 47.3583L110.229 45.3583L98.853 45.4285L98.8653 47.4284ZM109.28 46.6566L134.254 126.568L136.163 125.972L111.189 46.06L109.28 46.6566ZM136.162 126.569L161.3 46.3483L159.392 45.7503L134.254 125.971L136.162 126.569ZM160.352 47.0493L172.736 46.9729L172.724 44.9729L160.34 45.0493L160.352 47.0493ZM171.779 46.2837L197.904 126.188L199.805 125.567L173.68 45.6621L171.779 46.2837ZM199.813 126.164L223.799 45.9504L221.883 45.3774L197.897 125.591L199.813 126.164ZM222.847 46.6639L234.223 46.5937L234.21 44.5938L222.835 44.6639L222.847 46.6639ZM233.26 45.3025L204.184 140.812L206.098 141.394L235.173 45.885L233.26 45.3025ZM205.135 140.103L192.895 140.178L192.907 142.178L205.147 142.103L205.135 140.103ZM193.851 140.866L167.582 60.9625L165.682 61.5871L191.951 141.491L193.851 140.866ZM165.678 60.9742L140.396 141.196L142.304 141.797L167.586 61.5754L165.678 60.9742ZM141.344 140.496L129.104 140.572L129.117 142.572L141.356 142.496L141.344 140.496ZM245.461 140.854L244.461 140.86L244.468 141.86L245.468 141.854L245.461 140.854ZM244.84 40.0561L244.834 39.0561L243.834 39.0623L243.84 40.0623L244.84 40.0561ZM255.64 39.9895L256.64 39.9834L256.633 38.9834L255.633 38.9895L255.64 39.9895ZM255.886 80.0208L254.886 80.0269L254.905 83.0269L256.69 80.6158L255.886 80.0208ZM265.336 71.1783L265.881 72.0169L265.881 72.0169L265.336 71.1783ZM293.704 71.0034L293.223 71.8805L293.235 71.8868L293.246 71.8928L293.704 71.0034ZM304.424 81.4495L303.559 81.951L303.565 81.9615L303.571 81.9719L304.424 81.4495ZM308.964 140.463L308.97 141.463L309.97 141.456L309.964 140.456L308.964 140.463ZM298.164 140.529L297.164 140.535L297.171 141.535L298.171 141.529L298.164 140.529ZM292.195 83.2529L291.466 83.9379L291.475 83.9466L292.195 83.2529ZM266.687 80.0982L266.194 79.2282L266.194 79.2282L266.687 80.0982ZM258.815 87.9229L257.954 87.4136L257.95 87.4212L258.815 87.9229ZM256.261 140.788L256.267 141.788L257.267 141.781L257.261 140.781L256.261 140.788ZM246.461 140.848L245.84 40.05L243.84 40.0623L244.461 140.86L246.461 140.848ZM244.846 41.0561L255.646 40.9895L255.633 38.9895L244.834 39.0561L244.846 41.0561ZM254.64 39.9957L254.886 80.0269L256.886 80.0146L256.64 39.9834L254.64 39.9957ZM256.69 80.6158C259.188 77.2427 262.249 74.3768 265.881 72.0169L264.791 70.3398C260.965 72.8259 257.726 75.855 255.083 79.4257L256.69 80.6158ZM265.881 72.0169C269.406 69.7263 273.996 68.5249 279.72 68.4896L279.707 66.4896C273.72 66.5265 268.724 67.7843 264.791 70.3398L265.881 72.0169ZM279.72 68.4896C284.544 68.4598 289.039 69.5897 293.223 71.8805L294.184 70.1263C289.698 67.6705 284.867 66.4578 279.707 66.4896L279.72 68.4896ZM293.246 71.8928C297.491 74.0743 300.929 77.4142 303.559 81.951L305.289 80.948C302.485 76.1101 298.776 72.4859 294.161 70.114L293.246 71.8928ZM303.571 81.9719C306.266 86.3708 307.665 91.8841 307.706 98.5656L309.706 98.5532C309.663 91.603 308.207 85.7096 305.277 80.9271L303.571 81.9719ZM307.706 98.5656L307.964 140.469L309.964 140.456L309.706 98.5532L307.706 98.5656ZM308.958 139.463L298.158 139.529L298.171 141.529L308.97 141.463L308.958 139.463ZM299.164 140.523L298.908 98.9078L296.908 98.9202L297.164 140.535L299.164 140.523ZM298.908 98.9078C298.866 92.1783 296.896 86.693 292.915 82.5593L291.475 83.9466C295.03 87.6385 296.869 92.5939 296.908 98.9202L298.908 98.9078ZM292.924 82.568C288.948 78.3387 283.812 76.2565 277.608 76.2947L277.62 78.2947C283.319 78.2596 287.905 80.1494 291.466 83.9379L292.924 82.568ZM277.608 76.2947C273.419 76.3206 269.607 77.2934 266.194 79.2282L267.18 80.9681C270.273 79.2148 273.745 78.3186 277.62 78.2947L277.608 76.2947ZM266.194 79.2282C262.782 81.1626 260.034 83.8985 257.955 87.4137L259.676 88.4321C261.587 85.2024 264.087 82.7219 267.18 80.9681L266.194 79.2282ZM257.95 87.4212C255.949 90.8719 254.978 94.8499 255.005 99.3226L257.005 99.3102C256.98 95.143 257.882 91.5254 259.68 88.4246L257.95 87.4212ZM255.005 99.3226L255.261 140.794L257.261 140.781L257.005 99.3102L255.005 99.3226ZM256.255 139.788L245.455 139.854L245.468 141.854L256.267 141.788L256.255 139.788ZM339.239 136.532L338.714 137.383L338.725 137.39L339.239 136.532ZM326.541 85.6332L327.432 86.0871L327.435 86.0809L326.541 85.6332ZM338.842 72.1651L339.366 73.0167L339.377 73.0098L338.842 72.1651ZM376.857 71.9306L376.326 72.7776L376.335 72.7832L376.344 72.7886L376.857 71.9306ZM389.324 85.246L388.435 85.7047L388.438 85.7109L389.324 85.246ZM389.555 122.685L388.66 122.238L388.66 122.238L389.555 122.685ZM377.254 136.297L377.785 137.145L377.789 137.142L377.254 136.297ZM371.729 127.691L371.169 126.863L371.159 126.869L371.729 127.691ZM380.164 117.703L381.073 118.119L381.077 118.111L380.164 117.703ZM379.995 90.3436L380.899 89.9163L380.899 89.9163L379.995 90.3436ZM371.438 80.4602L370.878 81.289L370.888 81.2957L371.438 80.4602ZM344.366 80.6271L343.806 79.7985L343.806 79.7985L344.366 80.6271ZM335.932 90.6153L335.022 90.1992L335.022 90.1992L335.932 90.6153ZM336.1 117.975L335.193 118.394L335.196 118.402L336.1 117.975ZM358.271 140.311C351.128 140.355 344.968 138.796 339.753 135.674L338.725 137.39C344.302 140.729 350.834 142.356 358.283 142.311L358.271 140.311ZM339.764 135.681C334.522 132.449 330.492 128.099 327.66 122.614L325.883 123.531C328.881 129.338 333.163 133.961 338.714 137.383L339.764 135.681ZM327.66 122.614C324.823 117.118 323.377 111.043 323.336 104.373L321.336 104.386C321.379 111.347 322.891 117.735 325.883 123.531L327.66 122.614ZM323.336 104.373C323.295 97.6046 324.666 91.5161 327.432 86.0871L325.65 85.1792C322.724 90.9215 321.293 97.3306 321.336 104.386L323.336 104.373ZM327.435 86.0809C330.198 80.5639 334.171 76.2151 339.366 73.0166L338.318 71.3135C332.802 74.7092 328.574 79.3392 325.647 85.1854L327.435 86.0809ZM339.377 73.0098C344.551 69.7314 350.687 68.0519 357.825 68.0079L357.812 66.008C350.358 66.0539 343.843 67.8125 338.307 71.3203L339.377 73.0098ZM357.825 68.0079C365.061 67.9633 371.213 69.5684 376.326 72.7776L377.389 71.0837C371.9 67.6381 365.359 65.9614 357.812 66.008L357.825 68.0079ZM376.344 72.7886C381.578 75.9227 385.605 80.2222 388.435 85.7047L390.212 84.7873C387.213 78.9776 382.928 74.4001 377.371 71.0726L376.344 72.7886ZM388.438 85.7109C391.271 91.1054 392.717 97.1765 392.759 103.945L394.759 103.933C394.715 96.8778 393.205 90.4869 390.209 84.7811L388.438 85.7109ZM392.759 103.945C392.8 110.615 391.43 116.707 388.66 122.238L390.449 123.133C393.369 117.3 394.802 110.895 394.759 103.933L392.759 103.945ZM388.66 122.238C385.897 127.757 381.92 132.157 376.719 135.453L377.789 137.142C383.299 133.652 387.523 128.977 390.449 123.133L388.66 122.238ZM376.723 135.45C371.649 138.63 365.513 140.266 358.271 140.311L358.283 142.311C365.825 142.264 372.34 140.557 377.785 137.145L376.723 135.45ZM358.223 132.519C363.756 132.485 368.468 131.169 372.299 128.513L371.159 126.869C367.725 129.25 363.429 130.487 358.21 130.519L358.223 132.519ZM372.289 128.52C376.171 125.897 379.103 122.424 381.073 118.119L379.254 117.287C377.435 121.262 374.744 124.448 371.169 126.863L372.289 128.52ZM381.077 118.111C383.032 113.738 383.99 109.03 383.959 103.999L381.959 104.012C381.989 108.773 381.083 113.197 379.251 117.295L381.077 118.111ZM383.959 103.999C383.928 98.8761 382.912 94.1764 380.899 89.9163L379.091 90.7709C380.968 94.743 381.929 99.1513 381.959 104.012L383.959 103.999ZM380.899 89.9163C378.876 85.6363 375.902 82.1998 371.987 79.6247L370.888 81.2957C374.492 83.6664 377.223 86.8188 379.091 90.7709L380.899 89.9163ZM371.997 79.6314C368.134 77.0228 363.406 75.7656 357.873 75.7998L357.885 77.7997C363.104 77.7675 367.415 78.9507 370.878 81.289L371.997 79.6314ZM357.873 75.7998C352.43 75.8333 347.725 77.1509 343.806 79.7985L344.926 81.4558C348.464 79.0653 352.768 77.8313 357.885 77.7997L357.873 75.7998ZM343.806 79.7985C339.924 82.4216 336.992 85.8946 335.022 90.1992L336.841 91.0315C338.66 87.0566 341.352 83.8707 344.926 81.4558L343.806 79.7985ZM335.022 90.1992C333.062 94.4838 332.105 99.1956 332.136 104.319L334.136 104.307C334.106 99.4462 335.013 95.0264 336.841 91.0315L335.022 90.1992ZM332.136 104.319C332.167 109.35 333.184 114.045 335.193 118.394L337.008 117.555C335.125 113.48 334.166 109.068 334.136 104.307L332.136 104.319ZM335.196 118.402C337.219 122.682 340.193 126.119 344.108 128.694L345.207 127.023C341.603 124.652 338.872 121.5 337.005 117.548L335.196 118.402ZM344.108 128.694C348.059 131.293 352.78 132.552 358.223 132.519L358.21 130.519C353.093 130.55 348.775 129.369 345.207 127.023L344.108 128.694Z" fill="white"/>
</g>
<g filter="url(#filter1_d_186_180)">
<path d="M460.041 151.056L442.693 52.7383L453.977 54.1795L468.117 136.7L503.685 60.5281L515.97 62.097L531.252 144.763L565.678 68.4455L576.962 69.8867L535.46 160.689L523.319 159.138L507.894 76.4535L472.182 152.607L460.041 151.056ZM602.278 170.384C595.041 169.459 588.915 167.032 583.901 163.101C578.899 159.075 575.233 154.058 572.903 148.05C570.669 142.055 569.983 135.677 570.847 128.916C571.722 122.059 573.941 116.052 577.503 110.894C581.078 105.64 585.738 101.735 591.484 99.1785C597.243 96.5266 603.74 95.6628 610.978 96.5871C618.31 97.5236 624.382 99.9928 629.194 103.995C634.113 107.913 637.642 112.864 639.782 118.848C641.933 124.736 642.571 131.108 641.695 137.964L641.148 142.249L581.298 134.605C581.334 138.868 582.175 142.895 583.82 146.686C585.572 150.394 588.124 153.527 591.475 156.084C594.838 158.546 598.9 160.081 603.662 160.689C608.709 161.333 613.086 160.779 616.794 159.027C620.514 157.18 623.551 154.616 625.906 151.335L637.619 152.831C634.328 158.895 629.707 163.628 623.756 167.03C617.913 170.348 610.754 171.466 602.278 170.384ZM582.718 124.625L631.283 130.827C631.109 124.611 629.189 119.188 625.522 114.559C621.855 109.929 616.593 107.176 609.737 106.3C602.881 105.425 597.096 106.767 592.383 110.326C587.765 113.898 584.544 118.664 582.718 124.625Z" fill="black"/>
<path d="M460.041 151.056L459.056 151.23L459.184 151.955L459.914 152.048L460.041 151.056ZM442.693 52.7383L442.82 51.7464L441.472 51.5743L441.708 52.9121L442.693 52.7383ZM453.977 54.1795L454.963 54.0106L454.838 53.2813L454.104 53.1876L453.977 54.1795ZM468.117 136.7L467.131 136.869L467.671 140.018L469.023 137.123L468.117 136.7ZM503.685 60.5281L503.812 59.5361L503.088 59.4437L502.779 60.105L503.685 60.5281ZM515.97 62.097L516.953 61.9152L516.82 61.1975L516.096 61.105L515.97 62.097ZM531.252 144.763L530.269 144.945L530.85 148.087L532.164 145.174L531.252 144.763ZM565.678 68.4455L565.805 67.4536L565.071 67.3598L564.766 68.0343L565.678 68.4455ZM576.962 69.8867L577.872 70.3024L578.436 69.0669L577.089 68.8948L576.962 69.8867ZM535.46 160.689L535.334 161.681L536.064 161.774L536.37 161.104L535.46 160.689ZM523.319 159.138L522.336 159.321L522.47 160.038L523.192 160.13L523.319 159.138ZM507.894 76.4535L508.877 76.2701L508.307 73.2167L506.988 76.029L507.894 76.4535ZM472.182 152.607L472.056 153.599L472.778 153.691L473.088 153.032L472.182 152.607ZM461.026 150.883L443.678 52.5646L441.708 52.9121L459.056 151.23L461.026 150.883ZM442.566 53.7303L453.851 55.1715L454.104 53.1876L442.82 51.7464L442.566 53.7303ZM452.992 54.3484L467.131 136.869L469.103 136.531L454.963 54.0106L452.992 54.3484ZM469.023 137.123L504.592 60.9512L502.779 60.105L467.211 136.277L469.023 137.123ZM503.559 61.52L515.843 63.0889L516.096 61.105L503.812 59.5361L503.559 61.52ZM514.986 62.2788L530.269 144.945L532.235 144.581L516.953 61.9152L514.986 62.2788ZM532.164 145.174L566.589 68.8567L564.766 68.0343L530.341 144.352L532.164 145.174ZM565.551 69.4374L576.836 70.8786L577.089 68.8948L565.805 67.4536L565.551 69.4374ZM576.053 69.471L534.551 160.273L536.37 161.104L577.872 70.3024L576.053 69.471ZM535.587 159.697L523.446 158.146L523.192 160.13L535.334 161.681L535.587 159.697ZM524.302 158.955L508.877 76.2701L506.911 76.6369L522.336 159.321L524.302 158.955ZM506.988 76.029L471.277 152.182L473.088 153.032L508.799 76.8781L506.988 76.029ZM472.309 151.615L460.168 150.064L459.914 152.048L472.056 153.599L472.309 151.615ZM583.901 163.101L583.274 163.88L583.284 163.888L583.901 163.101ZM572.903 148.05L571.966 148.4L571.971 148.412L572.903 148.05ZM577.503 110.894L578.326 111.462L578.33 111.456L577.503 110.894ZM591.484 99.1785L591.891 100.092L591.903 100.087L591.484 99.1785ZM629.194 103.995L628.554 104.763L628.563 104.77L628.571 104.777L629.194 103.995ZM639.782 118.848L638.84 119.184L638.842 119.191L639.782 118.848ZM641.148 142.249L641.021 143.241L642.013 143.368L642.14 142.376L641.148 142.249ZM581.298 134.605L581.425 133.614L580.288 133.468L580.298 134.614L581.298 134.605ZM583.82 146.686L582.902 147.084L582.909 147.099L582.916 147.114L583.82 146.686ZM591.475 156.084L590.868 156.879L590.876 156.885L590.884 156.891L591.475 156.084ZM616.794 159.027L617.221 159.931L617.23 159.927L617.239 159.923L616.794 159.027ZM625.906 151.335L626.033 150.344L625.441 150.268L625.094 150.752L625.906 151.335ZM637.619 152.831L638.498 153.308L639.194 152.025L637.746 151.839L637.619 152.831ZM623.756 167.03L624.25 167.899L624.253 167.898L623.756 167.03ZM582.718 124.625L581.762 124.332L581.414 125.467L582.591 125.617L582.718 124.625ZM631.283 130.827L631.157 131.819L632.316 131.967L632.283 130.8L631.283 130.827ZM625.522 114.559L626.306 113.938L626.306 113.938L625.522 114.559ZM592.383 110.326L591.78 109.528L591.771 109.535L592.383 110.326ZM602.405 169.392C595.32 168.487 589.371 166.118 584.518 162.314L583.284 163.888C588.46 167.945 594.762 170.432 602.152 171.376L602.405 169.392ZM584.528 162.322C579.663 158.406 576.102 153.533 573.835 147.689L571.971 148.412C574.364 154.582 578.135 159.743 583.274 163.88L584.528 162.322ZM573.84 147.701C571.666 141.867 570.994 135.653 571.839 129.042L569.855 128.789C568.972 135.7 569.671 142.242 571.966 148.399L573.84 147.701ZM571.839 129.042C572.696 122.328 574.864 116.476 578.326 111.462L576.681 110.325C573.018 115.628 570.748 121.791 569.855 128.789L571.839 129.042ZM578.33 111.456C581.801 106.355 586.316 102.572 591.891 100.092L591.078 98.2648C585.16 100.898 580.355 104.925 576.677 110.331L578.33 111.456ZM591.903 100.087C597.466 97.5246 603.771 96.6749 610.851 97.5791L611.104 95.5952C603.71 94.6508 597.019 95.5286 591.066 98.2701L591.903 100.087ZM610.851 97.5791C618.029 98.4959 623.914 100.904 628.554 104.763L629.833 103.226C624.851 99.0817 618.591 96.5513 611.104 95.5952L610.851 97.5791ZM628.571 104.777C633.343 108.578 636.763 113.374 638.84 119.184L640.723 118.511C638.522 112.354 634.883 107.248 629.817 103.212L628.571 104.777ZM638.842 119.191C640.933 124.914 641.561 131.123 640.703 137.837L642.687 138.091C643.581 131.092 642.933 124.557 640.721 118.504L638.842 119.191ZM640.703 137.837L640.156 142.123L642.14 142.376L642.687 138.091L640.703 137.837ZM641.275 141.257L581.425 133.614L581.171 135.597L641.021 143.241L641.275 141.257ZM580.298 134.614C580.335 139.007 581.202 143.166 582.902 147.084L584.737 146.288C583.147 142.624 582.333 138.73 582.298 134.597L580.298 134.614ZM582.916 147.114C584.738 150.97 587.394 154.227 590.868 156.879L592.082 155.289C588.854 152.826 586.406 149.818 584.724 146.259L582.916 147.114ZM590.884 156.891C594.404 159.467 598.632 161.054 603.535 161.681L603.788 159.697C599.169 159.107 595.273 157.625 592.066 155.277L590.884 156.891ZM603.535 161.681C608.726 162.344 613.304 161.783 617.221 159.931L616.367 158.123C612.869 159.776 608.692 160.323 603.788 159.697L603.535 161.681ZM617.239 159.923C621.101 158.005 624.266 155.335 626.718 151.919L625.094 150.752C622.837 153.896 619.928 156.354 616.349 158.131L617.239 159.923ZM625.779 152.327L637.492 153.823L637.746 151.839L626.033 150.344L625.779 152.327ZM636.74 152.354C633.537 158.256 629.048 162.853 623.26 166.161L624.253 167.898C630.366 164.403 635.119 159.535 638.498 153.308L636.74 152.354ZM623.263 166.16C617.653 169.346 610.724 170.454 602.405 169.392L602.152 171.376C610.783 172.478 618.173 171.35 624.25 167.899L623.263 166.16ZM582.591 125.617L631.157 131.819L631.41 129.836L582.845 123.633L582.591 125.617ZM632.283 130.8C632.103 124.38 630.114 118.746 626.306 113.938L624.738 115.179C628.264 119.631 630.116 124.843 630.284 130.855L632.283 130.8ZM626.306 113.938C622.449 109.068 616.932 106.211 609.864 105.308L609.61 107.292C616.255 108.141 621.261 110.789 624.738 115.179L626.306 113.938ZM609.864 105.308C602.796 104.406 596.737 105.784 591.781 109.528L592.986 111.124C597.455 107.749 602.966 106.444 609.61 107.292L609.864 105.308ZM591.771 109.535C586.979 113.242 583.644 118.188 581.762 124.332L583.674 124.918C585.444 119.141 588.552 114.554 592.995 111.117L591.771 109.535Z" fill="white"/>
</g>
<g filter="url(#filter2_d_186_180)">
<path d="M682.612 185.508L742.594 101.087L755.814 103.992L774.874 205.783L763.201 203.218L757.743 173.711L711.612 163.573L694.285 188.073L682.612 185.508ZM717.823 154.765L755.797 163.11L746.793 113.51L717.823 154.765ZM784.453 207.888L799.907 137.566L810.456 139.884L806.654 157.184C807.297 156.047 808.35 154.608 809.814 152.865C811.393 151.05 813.44 149.337 815.956 147.728C818.472 146.118 821.432 144.95 824.835 144.224C828.353 143.424 832.268 143.498 836.581 144.446L837.284 144.601L834.966 155.149L833.701 154.871C828.45 153.717 823.583 154.171 819.1 156.233C814.731 158.222 811.011 161.286 807.938 165.428C804.98 169.495 802.935 174.108 801.801 179.265L795.002 210.206L784.453 207.888ZM862.127 226.137C855.001 224.571 849.117 221.607 844.473 217.245C839.849 212.789 836.645 207.465 834.861 201.273C833.17 195.103 833.056 188.689 834.519 182.032C836.002 175.281 838.748 169.495 842.756 164.675C846.784 159.761 851.774 156.287 857.726 154.253C863.698 152.125 870.246 151.844 877.372 153.41C884.592 154.997 890.42 157.998 894.856 162.413C899.406 166.755 902.479 172.001 904.077 178.151C905.694 184.207 905.762 190.611 904.278 197.362L903.351 201.581L844.421 188.631C844.077 192.88 844.555 196.966 845.855 200.888C847.27 204.738 849.532 208.085 852.642 210.931C855.772 213.683 859.682 215.574 864.37 216.604C869.339 217.696 873.749 217.535 877.598 216.12C881.468 214.612 884.722 212.329 887.359 209.272L898.892 211.806C895.074 217.553 890.049 221.854 883.819 224.712C877.703 227.496 870.472 227.971 862.127 226.137ZM846.725 178.817L894.544 189.325C894.925 183.118 893.496 177.546 890.256 172.607C887.017 167.669 882.022 164.458 875.271 162.974C868.52 161.491 862.639 162.311 857.627 165.437C852.709 168.582 849.075 173.042 846.725 178.817Z" fill="black"/>
<path d="M682.612 185.508L681.797 184.929L680.922 186.16L682.397 186.485L682.612 185.508ZM742.594 101.087L742.808 100.11L742.162 99.968L741.778 100.508L742.594 101.087ZM755.814 103.992L756.797 103.808L756.675 103.157L756.029 103.015L755.814 103.992ZM774.874 205.783L774.66 206.76L776.135 207.084L775.857 205.599L774.874 205.783ZM763.201 203.218L762.218 203.4L762.338 204.052L762.986 204.195L763.201 203.218ZM757.743 173.711L758.726 173.529L758.606 172.877L757.958 172.734L757.743 173.711ZM711.612 163.573L711.826 162.597L711.178 162.454L710.795 162.996L711.612 163.573ZM694.285 188.073L694.071 189.05L694.719 189.192L695.102 188.651L694.285 188.073ZM717.823 154.765L717.005 154.19L716.142 155.419L717.608 155.742L717.823 154.765ZM755.797 163.11L755.582 164.087L757.049 164.409L756.781 162.932L755.797 163.11ZM746.793 113.51L747.777 113.331L747.35 110.977L745.975 112.935L746.793 113.51ZM683.427 186.087L743.409 101.666L741.778 100.508L681.797 184.929L683.427 186.087ZM742.379 102.063L755.599 104.969L756.029 103.015L742.808 100.11L742.379 102.063ZM754.831 104.176L773.891 205.967L775.857 205.599L756.797 103.808L754.831 104.176ZM775.089 204.807L763.416 202.241L762.986 204.195L774.66 206.76L775.089 204.807ZM764.184 203.036L758.726 173.529L756.76 173.893L762.218 203.4L764.184 203.036ZM757.958 172.734L711.826 162.597L711.397 164.55L757.528 174.688L757.958 172.734ZM710.795 162.996L693.469 187.496L695.102 188.651L712.428 164.151L710.795 162.996ZM694.5 187.097L682.826 184.531L682.397 186.485L694.071 189.05L694.5 187.097ZM717.608 155.742L755.582 164.087L756.012 162.133L718.038 153.788L717.608 155.742ZM756.781 162.932L747.777 113.331L745.809 113.688L754.813 163.289L756.781 162.932ZM745.975 112.935L717.005 154.19L718.641 155.34L747.611 114.084L745.975 112.935ZM784.453 207.888L783.477 207.674L783.262 208.65L784.239 208.865L784.453 207.888ZM799.907 137.566L800.122 136.59L799.145 136.375L798.931 137.352L799.907 137.566ZM810.456 139.884L811.432 140.099L811.647 139.122L810.67 138.908L810.456 139.884ZM806.654 157.184L805.677 156.969L807.524 157.676L806.654 157.184ZM809.814 152.865L809.06 152.209L809.054 152.216L809.049 152.222L809.814 152.865ZM815.956 147.728L816.495 148.57L816.495 148.57L815.956 147.728ZM824.835 144.224L825.044 145.202L825.057 145.199L824.835 144.224ZM837.284 144.601L838.261 144.815L838.476 143.839L837.499 143.624L837.284 144.601ZM834.966 155.149L834.752 156.126L835.728 156.34L835.943 155.364L834.966 155.149ZM819.1 156.233L819.514 157.143L819.518 157.141L819.1 156.233ZM807.938 165.428L807.135 164.832L807.13 164.839L807.938 165.428ZM795.002 210.206L794.787 211.183L795.764 211.398L795.978 210.421L795.002 210.206ZM785.43 208.103L800.884 137.781L798.931 137.352L783.477 207.674L785.43 208.103ZM799.693 138.543L810.241 140.861L810.67 138.908L800.122 136.59L799.693 138.543ZM809.479 139.67L805.677 156.969L807.631 157.398L811.432 140.099L809.479 139.67ZM807.524 157.676C808.123 156.618 809.131 155.233 810.58 153.509L809.049 152.222C807.57 153.982 806.471 155.476 805.784 156.691L807.524 157.676ZM810.569 153.522C812.072 151.793 814.041 150.14 816.495 148.57L815.417 146.886C812.839 148.535 810.714 150.307 809.06 152.209L810.569 153.522ZM816.495 148.57C818.895 147.035 821.739 145.907 825.044 145.202L824.626 143.246C821.125 143.993 818.05 145.202 815.417 146.886L816.495 148.57ZM825.057 145.199C828.402 144.439 832.166 144.5 836.367 145.423L836.796 143.47C832.371 142.497 828.303 142.41 824.614 143.249L825.057 145.199ZM836.367 145.423L837.07 145.578L837.499 143.624L836.796 143.47L836.367 145.423ZM836.308 144.386L833.99 154.935L835.943 155.364L838.261 144.815L836.308 144.386ZM835.181 154.172L833.915 153.894L833.486 155.848L834.752 156.126L835.181 154.172ZM833.915 153.894C828.472 152.698 823.381 153.163 818.682 155.324L819.518 157.141C823.785 155.179 828.428 154.736 833.486 155.848L833.915 153.894ZM818.686 155.323C814.152 157.387 810.301 160.565 807.135 164.832L808.742 166.023C811.721 162.008 815.311 159.056 819.514 157.143L818.686 155.323ZM807.13 164.839C804.086 169.024 801.986 173.765 800.825 179.05L802.778 179.479C803.883 174.45 805.874 169.966 808.747 166.016L807.13 164.839ZM800.825 179.05L794.025 209.992L795.978 210.421L802.778 179.479L800.825 179.05ZM795.216 209.23L784.668 206.912L784.239 208.865L794.787 211.183L795.216 209.23ZM844.473 217.245L843.779 217.965L843.788 217.974L844.473 217.245ZM834.861 201.273L833.896 201.538L833.9 201.55L834.861 201.273ZM842.756 164.675L843.525 165.314L843.529 165.309L842.756 164.675ZM857.726 154.253L858.049 155.2L858.061 155.195L857.726 154.253ZM894.856 162.413L894.15 163.122L894.158 163.129L894.165 163.136L894.856 162.413ZM904.077 178.151L903.109 178.402L903.111 178.409L904.077 178.151ZM903.351 201.581L903.136 202.558L904.113 202.772L904.327 201.796L903.351 201.581ZM844.421 188.631L844.636 187.654L843.517 187.408L843.424 188.55L844.421 188.631ZM845.855 200.888L844.906 201.203L844.911 201.218L844.917 201.233L845.855 200.888ZM852.642 210.931L851.967 211.669L851.974 211.675L851.982 211.682L852.642 210.931ZM877.598 216.12L877.943 217.059L877.952 217.056L877.961 217.052L877.598 216.12ZM887.359 209.272L887.574 208.295L886.992 208.167L886.602 208.619L887.359 209.272ZM898.892 211.806L899.725 212.36L900.533 211.143L899.107 210.83L898.892 211.806ZM883.819 224.712L884.233 225.622L884.236 225.621L883.819 224.712ZM846.725 178.817L845.799 178.44L845.352 179.539L846.51 179.793L846.725 178.817ZM894.544 189.325L894.329 190.302L895.471 190.553L895.542 189.386L894.544 189.325ZM890.256 172.607L891.093 172.059L891.093 172.059L890.256 172.607ZM857.627 165.437L857.098 164.588L857.088 164.594L857.627 165.437ZM862.342 225.161C855.366 223.628 849.652 220.738 845.157 216.516L843.788 217.974C848.581 222.476 854.637 225.515 861.913 227.114L862.342 225.161ZM845.167 216.525C840.67 212.191 837.558 207.02 835.821 200.996L833.9 201.55C835.733 207.91 839.029 213.386 843.779 217.965L845.167 216.525ZM835.825 201.009C834.18 195.005 834.065 188.756 835.495 182.246L833.542 181.817C832.046 188.622 832.16 195.2 833.896 201.538L835.825 201.009ZM835.495 182.246C836.948 175.635 839.629 169.999 843.525 165.314L841.987 164.036C837.867 168.991 835.056 174.926 833.542 181.817L835.495 182.246ZM843.529 165.309C847.441 160.538 852.276 157.173 858.049 155.199L857.402 153.307C851.273 155.402 846.128 158.985 841.983 164.041L843.529 165.309ZM858.061 155.195C863.831 153.139 870.187 152.855 877.158 154.387L877.587 152.434C870.306 150.834 863.564 151.111 857.39 153.311L858.061 155.195ZM877.158 154.387C884.226 155.94 889.872 158.863 894.15 163.122L895.561 161.704C890.968 157.132 884.958 154.054 877.587 152.434L877.158 154.387ZM894.165 163.136C898.579 167.348 901.558 172.43 903.109 178.402L905.045 177.899C903.401 171.571 900.232 166.161 895.546 161.689L894.165 163.136ZM903.111 178.409C904.683 184.295 904.754 190.536 903.301 197.147L905.255 197.576C906.769 190.685 906.706 184.119 905.043 177.893L903.111 178.409ZM903.301 197.147L902.374 201.366L904.327 201.796L905.255 197.576L903.301 197.147ZM903.565 200.604L844.636 187.654L844.206 189.607L903.136 202.558L903.565 200.604ZM843.424 188.55C843.07 192.929 843.562 197.149 844.906 201.203L846.805 200.574C845.548 196.782 845.084 192.831 845.418 188.711L843.424 188.55ZM844.917 201.233C846.388 205.237 848.743 208.718 851.967 211.669L853.317 210.193C850.322 207.452 848.152 204.238 846.794 200.543L844.917 201.233ZM851.982 211.682C855.257 214.562 859.327 216.52 864.155 217.581L864.584 215.628C860.036 214.628 856.287 212.804 853.302 210.18L851.982 211.682ZM864.155 217.581C869.266 218.704 873.876 218.554 877.943 217.059L877.253 215.182C873.621 216.516 869.412 216.689 864.584 215.628L864.155 217.581ZM877.961 217.052C881.979 215.486 885.369 213.109 888.116 209.925L886.602 208.619C884.074 211.549 880.957 213.738 877.235 215.189L877.961 217.052ZM887.145 210.249L898.678 212.783L899.107 210.83L887.574 208.295L887.145 210.249ZM898.059 211.253C894.343 216.845 889.462 221.024 883.402 223.803L884.236 225.621C890.636 222.685 895.804 218.26 899.725 212.36L898.059 211.253ZM883.405 223.802C877.533 226.474 870.533 226.961 862.342 225.161L861.913 227.114C870.411 228.982 877.872 228.518 884.233 225.622L883.405 223.802ZM846.51 179.793L894.329 190.302L894.759 188.348L846.94 177.84L846.51 179.793ZM895.542 189.386C895.936 182.976 894.457 177.187 891.093 172.059L889.42 173.156C892.535 177.904 893.915 183.26 893.546 189.264L895.542 189.386ZM891.093 172.059C887.685 166.865 882.445 163.527 875.485 161.998L875.056 163.951C881.599 165.389 886.348 168.473 889.42 173.156L891.093 172.059ZM875.485 161.998C868.526 160.468 862.369 161.301 857.098 164.588L858.156 166.285C862.909 163.322 868.514 162.513 875.056 163.951L875.485 161.998ZM857.088 164.594C851.984 167.859 848.221 172.488 845.799 178.44L847.651 179.194C849.929 173.597 853.434 169.306 858.166 166.279L857.088 164.594Z" fill="white"/>
</g>
<defs>
<filter id="filter0_d_186_180" x="94.8254" y="39.1403" width="303.163" height="111.766" filterUnits="userSpaceOnUse" color-interpolation-filters="sRGB">
<feFlood flood-opacity="0" result="BackgroundImageFix"/>
<feColorMatrix in="SourceAlpha" type="matrix" values="0 0 0 0 0 0 0 0 0 0 0 0 0 0 0 0 0 0 127 0" result="hardAlpha"/>
<feOffset dy="4"/>
<feGaussianBlur stdDeviation="2"/>
<feComposite in2="hardAlpha" operator="out"/>
<feColorMatrix type="matrix" values="0 0 0 0 0 0 0 0 0 0 0 0 0 0 0 0 0 0 0.25 0"/>
<feBlend mode="normal" in2="BackgroundImageFix" result="effect1_dropShadow_186_180"/>
<feBlend mode="normal" in="SourceGraphic" in2="effect1_dropShadow_186_180" result="shape"/>
</filter>
<filter id="filter1_d_186_180" x="426.47" y="52.7384" width="226.741" height="130.078" filterUnits="userSpaceOnUse" color-interpolation-filters="sRGB">
<feFlood flood-opacity="0" result="BackgroundImageFix"/>
<feColorMatrix in="SourceAlpha" type="matrix" values="0 0 0 0 0 0 0 0 0 0 0 0 0 0 0 0 0 0 127 0" result="hardAlpha"/>
<feOffset dy="4"/>
<feGaussianBlur stdDeviation="2"/>
<feComposite in2="hardAlpha" operator="out"/>
<feColorMatrix type="matrix" values="0 0 0 0 0 0 0 0 0 0 0 0 0 0 0 0 0 0 0.25 0"/>
<feBlend mode="normal" in2="BackgroundImageFix" result="effect1_dropShadow_186_180"/>
<feBlend mode="normal" in="SourceGraphic" in2="effect1_dropShadow_186_180" result="shape"/>
</filter>
<filter id="filter2_d_186_180" x="678.365" y="92.4017" width="242.647" height="149.246" filterUnits="userSpaceOnUse" color-interpolation-filters="sRGB">
<feFlood flood-opacity="0" result="BackgroundImageFix"/>
<feColorMatrix in="SourceAlpha" type="matrix" values="0 0 0 0 0 0 0 0 0 0 0 0 0 0 0 0 0 0 127 0" result="hardAlpha"/>
<feOffset dy="4"/>
<feGaussianBlur stdDeviation="2"/>
<feComposite in2="hardAlpha" operator="out"/>
<feColorMatrix type="matrix" values="0 0 0 0 0 0 0 0 0 0 0 0 0 0 0 0 0 0 0.25 0"/>
<feBlend mode="normal" in2="BackgroundImageFix" result="effect1_dropShadow_186_180"/>
<feBlend mode="normal" in="SourceGraphic" in2="effect1_dropShadow_186_180" result="shape"/>
</filter>
</defs>
</svg>
