<svg width="1555" height="444" viewBox="0 0 1555 444" fill="none" xmlns="http://www.w3.org/2000/svg">
<path d="M360.209 417H349.145L309.506 355.608C308.503 354.069 307.68 352.457 307.035 350.774H306.713C306.999 352.422 307.143 355.949 307.143 361.355V417H298.119V339.979H309.828L348.393 400.403C350.004 402.91 351.042 404.629 351.508 405.56H351.723C351.365 403.34 351.186 399.562 351.186 394.227V339.979H360.209V417ZM402.211 418.289C394.083 418.289 387.584 415.729 382.714 410.608C377.88 405.452 375.463 398.631 375.463 390.145C375.463 380.906 377.987 373.691 383.036 368.499C388.085 363.307 394.906 360.711 403.5 360.711C411.7 360.711 418.091 363.235 422.675 368.284C427.294 373.333 429.604 380.333 429.604 389.285C429.604 398.058 427.115 405.094 422.138 410.394C417.196 415.657 410.554 418.289 402.211 418.289ZM402.855 368.123C397.198 368.123 392.722 370.057 389.428 373.924C386.133 377.755 384.486 383.055 384.486 389.822C384.486 396.339 386.151 401.478 389.481 405.237C392.812 408.997 397.27 410.877 402.855 410.877C408.549 410.877 412.917 409.033 415.961 405.345C419.04 401.657 420.58 396.411 420.58 389.607C420.58 382.732 419.04 377.433 415.961 373.709C412.917 369.985 408.549 368.123 402.855 368.123ZM469.188 416.463C467.112 417.609 464.372 418.182 460.971 418.182C451.339 418.182 446.522 412.811 446.522 402.068V369.52H437.069V362H446.522V348.572L455.331 345.726V362H469.188V369.52H455.331V400.511C455.331 404.199 455.958 406.831 457.211 408.406C458.464 409.982 460.541 410.77 463.441 410.77C465.661 410.77 467.577 410.161 469.188 408.943V416.463ZM526.605 417H517.797V385.311C517.797 373.852 513.536 368.123 505.014 368.123C500.717 368.123 497.1 369.788 494.164 373.118C491.228 376.412 489.76 380.656 489.76 385.848V417H480.951V335.574H489.76V371.131H489.975C494.2 364.184 500.215 360.711 508.021 360.711C520.411 360.711 526.605 368.177 526.605 383.108V417ZM547.768 348.035C546.192 348.035 544.849 347.498 543.739 346.424C542.629 345.35 542.074 343.989 542.074 342.342C542.074 340.695 542.629 339.334 543.739 338.26C544.849 337.15 546.192 336.595 547.768 336.595C549.379 336.595 550.74 337.15 551.85 338.26C552.995 339.334 553.568 340.695 553.568 342.342C553.568 343.917 552.995 345.26 551.85 346.37C550.74 347.48 549.379 348.035 547.768 348.035ZM552.064 417H543.256V362H552.064V417ZM615.551 417H606.742V385.633C606.742 373.96 602.481 368.123 593.959 368.123C589.555 368.123 585.902 369.788 583.002 373.118C580.137 376.412 578.705 380.584 578.705 385.633V417H569.896V362H578.705V371.131H578.92C583.074 364.184 589.089 360.711 596.967 360.711C602.982 360.711 607.584 362.662 610.771 366.565C613.957 370.433 615.551 376.036 615.551 383.377V417ZM679.145 412.596C679.145 432.791 669.477 442.889 650.141 442.889C643.337 442.889 637.393 441.6 632.309 439.021V430.213C638.503 433.65 644.411 435.369 650.033 435.369C663.568 435.369 670.336 428.172 670.336 413.777V407.762H670.121C665.932 414.78 659.63 418.289 651.215 418.289C644.376 418.289 638.861 415.854 634.672 410.984C630.518 406.079 628.441 399.508 628.441 391.272C628.441 381.927 630.679 374.497 635.155 368.982C639.667 363.468 645.826 360.711 653.632 360.711C661.044 360.711 666.54 363.683 670.121 369.627H670.336V362H679.145V412.596ZM670.336 392.132V384.021C670.336 379.653 668.85 375.911 665.878 372.796C662.942 369.681 659.271 368.123 654.867 368.123C649.424 368.123 645.163 370.11 642.084 374.085C639.005 378.024 637.465 383.556 637.465 390.682C637.465 396.805 638.933 401.71 641.869 405.398C644.841 409.051 648.762 410.877 653.632 410.877C658.573 410.877 662.584 409.122 665.663 405.613C668.778 402.104 670.336 397.61 670.336 392.132ZM731.674 348.035C730.098 348.035 728.756 347.498 727.646 346.424C726.535 345.35 725.98 343.989 725.98 342.342C725.98 340.695 726.535 339.334 727.646 338.26C728.756 337.15 730.098 336.595 731.674 336.595C733.285 336.595 734.646 337.15 735.756 338.26C736.902 339.334 737.475 340.695 737.475 342.342C737.475 343.917 736.902 345.26 735.756 346.37C734.646 347.48 733.285 348.035 731.674 348.035ZM735.971 417H727.162V362H735.971V417ZM750.473 415.013V405.56C755.271 409.104 760.552 410.877 766.317 410.877C774.052 410.877 777.919 408.299 777.919 403.143C777.919 401.674 777.579 400.439 776.898 399.437C776.254 398.398 775.359 397.485 774.213 396.697C773.103 395.91 771.778 395.211 770.238 394.603C768.734 393.958 767.105 393.296 765.351 392.615C762.916 391.648 760.767 390.682 758.905 389.715C757.079 388.712 755.539 387.602 754.286 386.385C753.069 385.132 752.138 383.717 751.493 382.142C750.884 380.566 750.58 378.722 750.58 376.609C750.58 374.031 751.171 371.757 752.353 369.788C753.534 367.783 755.11 366.118 757.079 364.793C759.049 363.432 761.286 362.412 763.793 361.731C766.335 361.051 768.949 360.711 771.635 360.711C776.397 360.711 780.658 361.535 784.418 363.182V372.098C780.372 369.448 775.717 368.123 770.453 368.123C768.806 368.123 767.32 368.32 765.995 368.714C764.67 369.072 763.524 369.591 762.558 370.271C761.627 370.952 760.893 371.775 760.355 372.742C759.854 373.673 759.604 374.712 759.604 375.857C759.604 377.29 759.854 378.489 760.355 379.456C760.893 380.423 761.662 381.282 762.665 382.034C763.668 382.786 764.885 383.466 766.317 384.075C767.75 384.684 769.379 385.346 771.205 386.062C773.64 386.993 775.824 387.96 777.758 388.963C779.691 389.93 781.339 391.04 782.699 392.293C784.06 393.51 785.098 394.925 785.814 396.536C786.566 398.147 786.942 400.063 786.942 402.283C786.942 405.005 786.334 407.368 785.116 409.373C783.935 411.378 782.341 413.043 780.336 414.368C778.331 415.693 776.021 416.678 773.407 417.322C770.793 417.967 768.054 418.289 765.189 418.289C759.532 418.289 754.626 417.197 750.473 415.013ZM840.922 417H831.898V339.979H840.922V417ZM938.139 417H929.33V385.418C929.33 379.331 928.381 374.926 926.483 372.205C924.621 369.484 921.47 368.123 917.03 368.123C913.271 368.123 910.066 369.842 907.416 373.279C904.802 376.717 903.495 380.835 903.495 385.633V417H894.687V384.344C894.687 373.53 890.515 368.123 882.172 368.123C878.305 368.123 875.118 369.752 872.611 373.011C870.105 376.233 868.852 380.441 868.852 385.633V417H860.043V362H868.852V370.701H869.066C872.969 364.041 878.663 360.711 886.146 360.711C889.906 360.711 893.183 361.767 895.976 363.88C898.769 365.957 900.684 368.696 901.723 372.098C905.805 364.507 911.892 360.711 919.984 360.711C932.087 360.711 938.139 368.177 938.139 383.108V417ZM963.812 409.051H963.598V442.298H954.789V362H963.598V371.668H963.812C968.145 364.363 974.483 360.711 982.826 360.711C989.916 360.711 995.448 363.182 999.423 368.123C1003.4 373.029 1005.38 379.617 1005.38 387.889C1005.38 397.091 1003.15 404.467 998.671 410.018C994.195 415.532 988.072 418.289 980.302 418.289C973.176 418.289 967.68 415.21 963.812 409.051ZM963.598 386.868V394.549C963.598 399.096 965.066 402.964 968.002 406.15C970.974 409.301 974.734 410.877 979.281 410.877C984.617 410.877 988.788 408.836 991.796 404.754C994.84 400.672 996.361 394.996 996.361 387.728C996.361 381.604 994.947 376.806 992.118 373.333C989.289 369.86 985.458 368.123 980.624 368.123C975.504 368.123 971.386 369.913 968.271 373.494C965.155 377.039 963.598 381.497 963.598 386.868ZM1042.45 418.289C1034.32 418.289 1027.82 415.729 1022.95 410.608C1018.11 405.452 1015.7 398.631 1015.7 390.145C1015.7 380.906 1018.22 373.691 1023.27 368.499C1028.32 363.307 1035.14 360.711 1043.73 360.711C1051.93 360.711 1058.33 363.235 1062.91 368.284C1067.53 373.333 1069.84 380.333 1069.84 389.285C1069.84 398.058 1067.35 405.094 1062.37 410.394C1057.43 415.657 1050.79 418.289 1042.45 418.289ZM1043.09 368.123C1037.43 368.123 1032.96 370.057 1029.66 373.924C1026.37 377.755 1024.72 383.055 1024.72 389.822C1024.72 396.339 1026.39 401.478 1029.72 405.237C1033.05 408.997 1037.5 410.877 1043.09 410.877C1048.78 410.877 1053.15 409.033 1056.2 405.345C1059.27 401.657 1060.81 396.411 1060.81 389.607C1060.81 382.732 1059.27 377.433 1056.2 373.709C1053.15 369.985 1048.78 368.123 1043.09 368.123ZM1080.58 415.013V405.56C1085.38 409.104 1090.66 410.877 1096.42 410.877C1104.16 410.877 1108.03 408.299 1108.03 403.143C1108.03 401.674 1107.69 400.439 1107.01 399.437C1106.36 398.398 1105.47 397.485 1104.32 396.697C1103.21 395.91 1101.89 395.211 1100.35 394.603C1098.84 393.958 1097.21 393.296 1095.46 392.615C1093.02 391.648 1090.87 390.682 1089.01 389.715C1087.19 388.712 1085.65 387.602 1084.39 386.385C1083.18 385.132 1082.25 383.717 1081.6 382.142C1080.99 380.566 1080.69 378.722 1080.69 376.609C1080.69 374.031 1081.28 371.757 1082.46 369.788C1083.64 367.783 1085.22 366.118 1087.19 364.793C1089.16 363.432 1091.39 362.412 1093.9 361.731C1096.44 361.051 1099.06 360.711 1101.74 360.711C1106.5 360.711 1110.77 361.535 1114.53 363.182V372.098C1110.48 369.448 1105.82 368.123 1100.56 368.123C1098.91 368.123 1097.43 368.32 1096.1 368.714C1094.78 369.072 1093.63 369.591 1092.67 370.271C1091.73 370.952 1091 371.775 1090.46 372.742C1089.96 373.673 1089.71 374.712 1089.71 375.857C1089.71 377.29 1089.96 378.489 1090.46 379.456C1091 380.423 1091.77 381.282 1092.77 382.034C1093.78 382.786 1094.99 383.466 1096.42 384.075C1097.86 384.684 1099.49 385.346 1101.31 386.062C1103.75 386.993 1105.93 387.96 1107.87 388.963C1109.8 389.93 1111.45 391.04 1112.81 392.293C1114.17 393.51 1115.21 394.925 1115.92 396.536C1116.67 398.147 1117.05 400.063 1117.05 402.283C1117.05 405.005 1116.44 407.368 1115.22 409.373C1114.04 411.378 1112.45 413.043 1110.44 414.368C1108.44 415.693 1106.13 416.678 1103.51 417.322C1100.9 417.967 1098.16 418.289 1095.3 418.289C1089.64 418.289 1084.73 417.197 1080.58 415.013ZM1127.31 415.013V405.56C1132.11 409.104 1137.39 410.877 1143.15 410.877C1150.89 410.877 1154.75 408.299 1154.75 403.143C1154.75 401.674 1154.41 400.439 1153.73 399.437C1153.09 398.398 1152.19 397.485 1151.05 396.697C1149.94 395.91 1148.61 395.211 1147.07 394.603C1145.57 393.958 1143.94 393.296 1142.19 392.615C1139.75 391.648 1137.6 390.682 1135.74 389.715C1133.92 388.712 1132.38 387.602 1131.12 386.385C1129.9 385.132 1128.97 383.717 1128.33 382.142C1127.72 380.566 1127.42 378.722 1127.42 376.609C1127.42 374.031 1128.01 371.757 1129.19 369.788C1130.37 367.783 1131.95 366.118 1133.92 364.793C1135.88 363.432 1138.12 362.412 1140.63 361.731C1143.17 361.051 1145.79 360.711 1148.47 360.711C1153.23 360.711 1157.49 361.535 1161.25 363.182V372.098C1157.21 369.448 1152.55 368.123 1147.29 368.123C1145.64 368.123 1144.16 368.32 1142.83 368.714C1141.51 369.072 1140.36 369.591 1139.39 370.271C1138.46 370.952 1137.73 371.775 1137.19 372.742C1136.69 373.673 1136.44 374.712 1136.44 375.857C1136.44 377.29 1136.69 378.489 1137.19 379.456C1137.73 380.423 1138.5 381.282 1139.5 382.034C1140.5 382.786 1141.72 383.466 1143.15 384.075C1144.59 384.684 1146.21 385.346 1148.04 386.062C1150.48 386.993 1152.66 387.96 1154.59 388.963C1156.53 389.93 1158.17 391.04 1159.54 392.293C1160.9 393.51 1161.93 394.925 1162.65 396.536C1163.4 398.147 1163.78 400.063 1163.78 402.283C1163.78 405.005 1163.17 407.368 1161.95 409.373C1160.77 411.378 1159.18 413.043 1157.17 414.368C1155.17 415.693 1152.86 416.678 1150.24 417.322C1147.63 417.967 1144.89 418.289 1142.03 418.289C1136.37 418.289 1131.46 417.197 1127.31 415.013ZM1181.88 348.035C1180.3 348.035 1178.96 347.498 1177.85 346.424C1176.74 345.35 1176.19 343.989 1176.19 342.342C1176.19 340.695 1176.74 339.334 1177.85 338.26C1178.96 337.15 1180.3 336.595 1181.88 336.595C1183.49 336.595 1184.85 337.15 1185.96 338.26C1187.11 339.334 1187.68 340.695 1187.68 342.342C1187.68 343.917 1187.11 345.26 1185.96 346.37C1184.85 347.48 1183.49 348.035 1181.88 348.035ZM1186.18 417H1177.37V362H1186.18V417ZM1213.03 409.051H1212.82V417H1204.01V335.574H1212.82V371.668H1213.03C1217.36 364.363 1223.7 360.711 1232.04 360.711C1239.1 360.711 1244.61 363.182 1248.59 368.123C1252.6 373.029 1254.6 379.617 1254.6 387.889C1254.6 397.091 1252.37 404.467 1247.89 410.018C1243.41 415.532 1237.29 418.289 1229.52 418.289C1222.25 418.289 1216.76 415.21 1213.03 409.051ZM1212.82 386.868V394.549C1212.82 399.096 1214.28 402.964 1217.22 406.15C1220.19 409.301 1223.95 410.877 1228.5 410.877C1233.84 410.877 1238.01 408.836 1241.01 404.754C1244.06 400.672 1245.58 394.996 1245.58 387.728C1245.58 381.604 1244.17 376.806 1241.34 373.333C1238.51 369.86 1234.68 368.123 1229.84 368.123C1224.72 368.123 1220.6 369.913 1217.49 373.494C1214.37 377.039 1212.82 381.497 1212.82 386.868ZM1277.48 417H1268.68V335.574H1277.48V417ZM1339.52 391.702H1300.69C1300.83 397.825 1302.48 402.552 1305.63 405.882C1308.78 409.212 1313.11 410.877 1318.63 410.877C1324.82 410.877 1330.51 408.836 1335.71 404.754V413.025C1330.87 416.535 1324.48 418.289 1316.53 418.289C1308.76 418.289 1302.66 415.8 1298.22 410.823C1293.78 405.81 1291.56 398.774 1291.56 389.715C1291.56 381.157 1293.97 374.192 1298.81 368.821C1303.68 363.414 1309.71 360.711 1316.91 360.711C1324.11 360.711 1329.67 363.038 1333.61 367.693C1337.55 372.348 1339.52 378.812 1339.52 387.083V391.702ZM1330.5 384.236C1330.46 379.152 1329.23 375.195 1326.79 372.366C1324.39 369.537 1321.04 368.123 1316.75 368.123C1312.59 368.123 1309.07 369.609 1306.17 372.581C1303.27 375.553 1301.48 379.438 1300.79 384.236H1330.5Z" fill="#2A3744"/>
<path d="M1382.16 70.1914C1381.7 70.2988 1381.99 70.2793 1381.61 70.3281C1379.98 70.6797 1381.19 70.9922 1382.16 70.1914ZM1410.84 70.8457C1410.96 70.7676 1411.37 70.3672 1410.09 69.9766C1410.17 70.377 1409.83 70.3379 1409.83 70.5625C1410.77 71.4219 1411.16 72.916 1412.38 73.2285C1412.61 72.1543 1411.3 71.627 1410.84 70.8457V70.8457ZM1381.29 69.8789C1381.44 70.748 1382.09 68.9609 1382.1 68.3262C1381.85 68.4727 1381.59 68.6191 1381.33 68.7363C1381.95 69.0488 1381.41 69.3809 1380.74 69.8789C1379.4 71.5586 1382 68.5703 1381.29 69.8789V69.8789ZM1398 59C1384.19 59 1373 70.1914 1373 84C1373 97.7988 1384.19 109 1398 109C1411.81 109 1423 97.7988 1423 84C1423 70.1914 1411.81 59 1398 59ZM1398.66 67.3789L1398.78 67.418C1398.31 68.0234 1401.22 69.791 1399.13 69.9375C1397.18 70.4941 1399.95 69.4297 1398.44 69.6152C1399.24 68.502 1397.8 68.4824 1398.66 67.3789V67.3789ZM1386.81 68.9805C1386.11 68.3945 1383.9 69.7813 1384.67 69.4492C1386.58 68.6973 1384.8 69.5273 1385.25 70.4258C1384.84 71.2754 1385.11 69.5859 1384.09 70.5918C1383.36 70.7578 1381.56 72.418 1381.79 71.9102C1381.73 72.7012 1379.65 73.6387 1379.37 74.957C1378.68 76.7832 1379.2 74.8887 1379.07 74.1758C1378.1 72.9355 1376.32 76.2754 1376.85 77.5937C1377.74 76.0312 1377.67 77.4277 1377.02 78.1211C1377.68 79.3223 1376.43 80.8848 1377.67 81.7734C1378.21 81.9004 1379.31 79.9375 1378.83 81.9785C1379.16 80.2109 1379.75 82.3984 1380.7 81.9102C1380.75 82.8379 1381.33 82.4082 1381.46 83.5312C1383.04 83.4141 1384.48 86.0898 1382.6 86.5977C1382.88 86.5195 1383.44 87.0176 1384.08 86.6367C1385.18 87.5059 1388.06 87.6133 1388.14 89.7617C1386.15 90.709 1387.65 93.3066 1385.93 94.2344C1383.96 93.9414 1385.26 96.666 1384.43 96.3535C1384.76 98.3164 1382.43 96.0996 1383.33 97.1836C1384.98 98.1992 1382.61 97.9941 1383.35 98.7363C1382.52 98.5605 1383.87 100.279 1384.09 100.914C1385.29 102.848 1383.07 100.484 1382.41 99.8398C1381.79 98.5898 1380.31 96.1973 1379.9 94.2344C1379.67 91.3828 1377.46 89.4688 1376.96 86.6855C1376.45 85.1328 1378.35 82.6426 1377.33 81.7734C1376.44 81.0801 1376.8 78.707 1376.27 77.457C1377.59 71.7441 1381.78 66.9297 1386.81 64.0781C1386.29 64.459 1389.77 63.0918 1389.37 63.4238C1389.26 63.668 1391.4 62.4961 1392.69 62.3203C1392.55 62.3398 1389.34 63.4922 1390.23 63.3359C1388.85 64.0098 1390.09 63.6289 1390.77 63.2871C1389.41 64.293 1388.35 64.0098 1386.8 64.8984C1385.24 65.3086 1385.56 66.9297 1384.45 67.7402C1385.1 67.8574 1386.74 66.0508 1387.7 65.416C1389.89 64.3516 1386.58 67.3496 1388.67 66.0605C1387.97 66.7148 1388.12 67.7598 1387.69 68.0527C1387.47 67.9941 1388.54 68.5605 1386.81 68.9805ZM1390.23 64.4883C1390 64.791 1389.69 65.4453 1389.5 65.0449C1389.25 65.1719 1389.15 65.7188 1388.67 65.2793C1388.96 65.0742 1389.25 64.5859 1388.69 64.8887C1388.95 64.6152 1391.21 63.8437 1391.09 63.5508C1391.49 63.2969 1391.45 63.1699 1390.99 63.3262C1390.75 63.248 1391.54 62.584 1392.6 62.4961C1392.75 62.4961 1392.8 62.5938 1392.54 62.5645C1390.95 63.0527 1391.63 62.916 1392.71 62.5645C1392.3 62.7988 1392.01 62.8672 1391.95 62.9746C1393.02 62.584 1391.89 63.2578 1392.13 63.209C1391.83 63.3652 1392.18 63.4141 1391.59 63.6387C1391.7 63.5508 1390.64 64.2734 1391.27 64.0586C1390.66 64.6445 1390.38 64.6543 1390.23 64.4883V64.4883ZM1391.16 65.8848C1391.18 64.9473 1392.53 64.3516 1392.37 64.3027C1394.03 63.5215 1391.79 64.332 1393.1 63.6289C1393.59 63.5801 1394.62 62.0176 1396.06 61.9199C1397.64 61.4414 1396.91 61.9492 1398.08 61.5L1397.84 61.6953C1397.64 61.7246 1397.89 62.0859 1397.15 62.6328C1397.07 63.4824 1395.73 63.0918 1396.4 64C1395.97 63.3848 1395.32 63.9805 1396.13 64.0391C1395.27 64.7031 1393.24 64.8203 1392.28 65.9238C1391.65 66.8223 1391.08 66.5391 1391.16 65.8848V65.8848ZM1398.11 69.0098C1397.44 70.6113 1396.8 68.7754 1397.97 68.4824C1398.26 68.6387 1398.38 68.6875 1398.11 69.0098ZM1395.61 65.8066C1395.41 65.084 1395.57 65.4648 1396.73 65.123C1397.53 65.6992 1396.02 66.0801 1395.61 65.8066ZM1413.79 94.4688C1412.87 92.8867 1414.9 91.4219 1415.59 90.0937C1415.5 91.6465 1415.3 93.1797 1413.79 94.4688ZM1417.25 76.3926C1416.25 76.4707 1415.35 76.7051 1414.46 76.1387C1412.38 73.873 1414.84 78.6973 1415.52 76.7246C1417.98 77.6621 1415.48 81.7051 1413.93 81.2852C1413.06 79.4102 1411.98 77.3496 1410.09 76.4316C1411.54 78.043 1412.27 80.0254 1413.83 81.4805C1413.94 83.5117 1416 80.7383 1415.87 82.3105C1416.07 85.0156 1412.81 86.6367 1413.38 89.3516C1414.59 91.8223 1411.05 92.2715 1411.45 94.4883C1410.02 96.0801 1408.5 98.2285 1405.94 97.8867C1405.94 96.5391 1405.26 95.3965 1405.1 94.0098C1403.71 92.252 1406.56 90.3672 1404.8 88.5312C1402.76 88.0723 1405.22 85.2598 1403.12 85.5234C1401.86 84.2637 1400.01 85.4844 1398.21 85.4941C1395.94 85.709 1393.61 82.7109 1394.61 80.5918C1393.81 78.3848 1397.15 77.7402 1397.24 75.7969C1398.84 74.459 1401.12 74.625 1403.28 74.3125C1403.13 75.8652 1404.77 75.875 1406.01 76.3926C1406.7 74.7129 1408.86 76.666 1410.33 75.6016C1410.84 73.1211 1408.9 74.6152 1407.79 73.8242C1406.44 71.8516 1410.67 72.8086 1410.23 71.7734C1408.59 71.7637 1409.51 69.752 1408.35 70.875C1409.4 71.0605 1408.17 71.8809 1408.2 70.9434C1406.61 70.4844 1408.14 72.7402 1407.34 72.9551C1406.12 72.4473 1406.69 73.5312 1406.82 73.6973C1406.29 74.8398 1405.65 72.0176 1404.15 72.0957C1402.67 70.7383 1403.57 72.7109 1404.86 73.0332C1404.58 73.1113 1405.01 74.2344 1404.67 73.7559C1403.61 72.291 1401.58 71.3145 1400.38 73.1113C1400.26 74.791 1396.84 75.2695 1397.38 73.3066C1396.58 71.2754 1399.87 73.248 1399.56 71.627C1397.45 70.2305 1400.14 70.6797 1400.85 69.3711C1402.47 69.4199 1400.92 68.043 1401.68 67.6426C1401.6 69.1367 1402.92 68.8535 1403.97 68.5703C1403.71 67.7109 1404.59 67.7402 1404.05 67.0273C1406.48 66.0605 1402.21 67.4766 1403.07 65.3574C1402.02 64.6348 1402.63 66.9492 1403.07 67.1934C1403.1 67.9063 1402.49 68.7852 1401.66 67.291C1400.45 68.082 1400.58 66.4902 1400.5 66.6563C1400.36 66.041 1401.42 66.0117 1401.43 64.9375C1401.34 64.2539 1401.36 63.8926 1401.85 63.8535C1401.89 63.9512 1403.85 63.9805 1404.54 64.791C1402.65 64.4102 1404.26 65.1035 1405.11 65.4941C1404.2 64.7812 1405.47 65.4941 1404.73 64.6836C1405.02 64.7422 1403.92 63.5703 1405.05 64.5957C1404.44 63.8633 1406.25 64.0781 1405.18 63.5313C1406.75 63.9707 1405.82 63.5703 1404.89 63.1699C1402.34 61.6465 1409.42 65.2305 1406.53 63.6387C1408.37 64.0391 1402.58 62.2129 1405.22 63.0137C1404.21 62.5742 1405.19 62.8184 1406.1 63.1016C1404.46 62.5938 1402.02 61.6465 1402.12 61.6074C1402.69 61.6465 1403.24 61.7734 1403.78 61.9297C1405.45 62.4277 1403.3 61.8125 1403.76 61.8223C1409.5 63.2969 1414.53 67.1445 1417.59 72.1738C1418.3 72.9258 1420.25 77.8965 1419.23 75.6895C1419.69 77.4473 1419.76 79.3418 1420 81.1387C1419.49 80.5723 1418.93 78.4824 1418.44 77.3203C1418.23 77.7695 1418 76.6855 1417.25 76.3926Z" fill="#3588A3"/>
<path d="M330.512 214.85C327.846 216.245 325.096 217.473 322.278 218.53C313.31 221.885 303.809 223.595 294.233 223.576C257.267 223.576 225.066 198.148 225.066 165.517C225.113 161.141 226.327 156.856 228.584 153.106C230.84 149.355 234.056 146.275 237.901 144.183C204.465 145.589 195.872 180.43 195.872 200.843C195.872 258.558 249.064 264.409 260.524 264.409C266.704 264.409 276.023 262.613 281.617 260.847L282.64 260.503C304.164 253.062 322.513 238.515 334.668 219.256C335.04 218.67 335.207 217.976 335.14 217.284C335.074 216.593 334.78 215.943 334.303 215.437C333.826 214.932 333.195 214.6 332.508 214.494C331.822 214.387 331.119 214.513 330.512 214.85V214.85Z" fill="url(#paint0_linear_199_31)"/>
<path opacity="0.35" d="M330.512 214.85C327.846 216.245 325.096 217.473 322.278 218.53C313.31 221.885 303.809 223.595 294.233 223.576C257.267 223.576 225.066 198.148 225.066 165.517C225.113 161.141 226.327 156.856 228.584 153.106C230.84 149.355 234.056 146.275 237.901 144.183C204.465 145.589 195.872 180.43 195.872 200.843C195.872 258.558 249.064 264.409 260.524 264.409C266.704 264.409 276.023 262.613 281.617 260.847L282.64 260.503C304.164 253.062 322.513 238.515 334.668 219.256C335.04 218.67 335.207 217.976 335.14 217.284C335.074 216.593 334.78 215.943 334.303 215.437C333.826 214.932 333.195 214.6 332.508 214.494C331.822 214.387 331.119 214.513 330.512 214.85V214.85Z" fill="url(#paint1_radial_199_31)"/>
<path d="M232.596 254.598C225.629 250.273 219.59 244.606 214.832 237.927C209.409 230.497 205.677 221.97 203.898 212.945C202.119 203.92 202.336 194.615 204.534 185.682C206.732 176.75 210.858 168.407 216.622 161.238C222.386 154.069 229.649 148.248 237.901 144.183C240.338 143.034 244.502 140.956 250.041 141.058C253.943 141.086 257.785 142.018 261.267 143.78C264.749 145.542 267.776 148.086 270.11 151.213C273.264 155.426 275.004 160.529 275.078 165.791C275.078 165.627 294.186 103.607 212.582 103.607C178.287 103.607 150.086 136.152 150.086 164.705C149.951 179.809 153.182 194.753 159.546 208.452C169.947 230.643 188.134 248.241 210.655 257.906C233.175 267.571 258.461 268.628 281.71 260.878C273.57 263.445 264.97 264.216 256.503 263.137C248.036 262.058 239.903 259.155 232.667 254.629L232.596 254.598Z" fill="url(#paint2_linear_199_31)"/>
<path opacity="0.41" d="M232.596 254.598C225.629 250.273 219.59 244.606 214.832 237.927C209.409 230.497 205.677 221.97 203.898 212.945C202.119 203.92 202.336 194.615 204.534 185.682C206.732 176.75 210.858 168.407 216.622 161.238C222.386 154.069 229.649 148.248 237.901 144.183C240.338 143.034 244.502 140.956 250.041 141.058C253.943 141.086 257.785 142.018 261.267 143.78C264.749 145.542 267.776 148.086 270.11 151.213C273.264 155.426 275.004 160.529 275.078 165.791C275.078 165.627 294.186 103.607 212.582 103.607C178.287 103.607 150.086 136.152 150.086 164.705C149.951 179.809 153.182 194.753 159.546 208.452C169.947 230.643 188.134 248.241 210.655 257.906C233.175 267.571 258.461 268.628 281.71 260.878C273.57 263.445 264.97 264.216 256.503 263.137C248.036 262.058 239.903 259.155 232.667 254.629L232.596 254.598Z" fill="url(#paint3_radial_199_31)"/>
<path d="M269 182.29C268.368 183.11 266.422 184.243 266.422 186.711C266.422 188.75 267.75 190.711 270.11 192.359C281.343 200.171 302.522 199.14 302.576 199.14C310.9 199.12 319.066 196.867 326.223 192.617C333.443 188.401 339.435 182.371 343.605 175.125C347.775 167.878 349.978 159.668 349.995 151.307C350.198 133.8 343.746 122.161 341.136 117.005C324.583 84.6238 288.851 66 249.994 66C223.716 65.9974 198.493 76.3392 179.78 94.7886C161.067 113.238 150.37 138.312 150 164.588C150.375 136.042 178.748 112.989 212.496 112.989C215.23 112.989 230.823 113.255 245.307 120.856C258.071 127.559 264.758 135.652 269.407 143.675C274.234 152.01 275.094 162.541 275.094 166.736C275.094 170.931 272.953 177.149 269 182.29V182.29Z" fill="url(#paint4_radial_199_31)"/>
<path d="M269 182.29C268.368 183.11 266.422 184.243 266.422 186.711C266.422 188.75 267.75 190.711 270.11 192.359C281.343 200.171 302.522 199.14 302.576 199.14C310.9 199.12 319.066 196.867 326.223 192.617C333.443 188.401 339.435 182.371 343.605 175.125C347.775 167.878 349.978 159.668 349.995 151.307C350.198 133.8 343.746 122.161 341.136 117.005C324.583 84.6238 288.851 66 249.994 66C223.716 65.9974 198.493 76.3392 179.78 94.7886C161.067 113.238 150.37 138.312 150 164.588C150.375 136.042 178.748 112.989 212.496 112.989C215.23 112.989 230.823 113.255 245.307 120.856C258.071 127.559 264.758 135.652 269.407 143.675C274.234 152.01 275.094 162.541 275.094 166.736C275.094 170.931 272.953 177.149 269 182.29V182.29Z" fill="url(#paint5_radial_199_31)"/>
<path d="M95.625 120.031V266H39.7969V120.031H0V74.0469H135.422V120.031H95.625Z" fill="#3588A3"/>
<path d="M487.344 190.734L541.203 193.969C538.672 217.5 529.953 235.547 515.047 248.109C500.234 260.672 482 266.953 460.344 266.953C434.281 266.953 413.234 258.328 397.203 241.078C381.172 223.828 373.156 200.016 373.156 169.641C373.156 139.547 380.75 115.266 395.938 96.7969C411.125 78.3281 432.312 69.0938 459.5 69.0938C484.906 69.0938 504.406 76.125 518 90.1875C531.688 104.25 539.422 122.906 541.203 146.156L486.219 149.109C486.219 136.266 483.734 126.984 478.766 121.266C473.891 115.547 468.125 112.688 461.469 112.688C442.906 112.688 433.625 131.344 433.625 168.656C433.625 189.562 436.016 203.766 440.797 211.266C445.672 218.766 452.469 222.516 461.188 222.516C476.75 222.516 485.469 211.922 487.344 190.734ZM725.703 72.0469V264H666.781V189.328H621.781V264H562.859V72.0469H621.781V142.641H666.781V72.0469H725.703ZM893.75 216.891V264H759.172V72.0469H818.094V216.891H893.75ZM1020.31 264L1009.48 226.172H958.016L946.484 264H898.672L958.016 72.0469H1020.31L1080.36 264H1020.31ZM968 184.266H999.219L983.609 128.578L968 184.266ZM1098.08 264V72.0469H1195.53C1215.78 72.0469 1230.55 77.1562 1239.83 87.375C1249.11 97.5938 1253.75 109.266 1253.75 122.391C1253.75 131.953 1251.03 140.625 1245.59 148.406C1240.25 156.094 1232.23 161.391 1221.55 164.297C1246.39 170.297 1258.81 185.203 1258.81 209.016C1258.81 223.266 1254.41 236.016 1245.59 247.266C1236.88 258.422 1218.17 264 1189.48 264H1098.08ZM1152.36 145.594H1179.64C1186.48 145.594 1191.31 143.859 1194.12 140.391C1196.94 136.922 1198.34 133.219 1198.34 129.281C1198.34 118.594 1191.78 113.25 1178.66 113.25H1152.36V145.594ZM1152.36 221.25H1181.05C1188.17 221.25 1193.38 219.516 1196.66 216.047C1200.03 212.484 1201.72 208.5 1201.72 204.094C1201.72 199.688 1200.08 195.656 1196.8 192C1193.61 188.25 1187.7 186.375 1179.08 186.375H1152.36V221.25Z" fill="#3588A3"/>
<rect x="1373" y="122" width="50" height="142" fill="#3588A3"/>
<path d="M1550.08 120.984V157.406H1521.53V210.141C1521.53 217.359 1522.89 221.672 1525.61 223.078C1528.33 224.391 1531.14 225.047 1534.05 225.047C1538.55 225.047 1543.89 224.25 1550.08 222.656V262.594C1539.02 264.75 1528.14 265.828 1517.45 265.828C1500.2 265.828 1487.5 262.125 1479.34 254.719C1471.28 247.312 1467.25 235.5 1467.25 219.281L1467.39 202.547V157.406H1446.02V120.984H1467.39L1468.23 74.4375L1521.53 73.5938V120.984H1550.08Z" fill="#3588A3"/>
<defs>
<linearGradient id="paint0_linear_199_31" x1="195.872" y1="204.312" x2="335.191" y2="204.312" gradientUnits="userSpaceOnUse">
<stop stop-color="#3588A3"/>
<stop offset="1" stop-color="#3588A3"/>
</linearGradient>
<radialGradient id="paint1_radial_199_31" cx="0" cy="0" r="1" gradientUnits="userSpaceOnUse" gradientTransform="translate(272.82 205.41) scale(74.511 70.7854)">
<stop offset="0.72" stop-opacity="0"/>
<stop offset="0.95" stop-opacity="0.53"/>
<stop offset="1"/>
</radialGradient>
<linearGradient id="paint2_linear_199_31" x1="269.321" y1="143.878" x2="182.303" y2="238.661" gradientUnits="userSpaceOnUse">
<stop stop-color="#3588A3"/>
<stop offset="0.16" stop-color="#3588A3"/>
<stop offset="0.67" stop-color="#3588A3"/>
<stop offset="1" stop-color="#3588A3"/>
</linearGradient>
<radialGradient id="paint3_radial_199_31" cx="0" cy="0" r="1" gradientUnits="userSpaceOnUse" gradientTransform="translate(205.148 221.466) rotate(-81.3844) scale(112.045 90.5208)">
<stop offset="0.375" stop-color="#3588A3" stop-opacity="0.206689"/>
<stop offset="0.76" stop-opacity="0"/>
<stop offset="0.95" stop-opacity="0.5"/>
<stop offset="1"/>
</radialGradient>
<radialGradient id="paint4_radial_199_31" cx="0" cy="0" r="1" gradientUnits="userSpaceOnUse" gradientTransform="translate(170.204 103.011) rotate(92.2906) scale(158.265 337.072)">
<stop stop-color="#3588A3"/>
<stop offset="0.11" stop-color="#3588A3"/>
<stop offset="0.23" stop-color="#3588A3"/>
<stop offset="0.31" stop-color="#3588A3"/>
<stop offset="0.67" stop-color="#3588A3"/>
</radialGradient>
<radialGradient id="paint5_radial_199_31" cx="0" cy="0" r="1" gradientUnits="userSpaceOnUse" gradientTransform="translate(337.545 126.47) rotate(73.7398) scale(76.0421 61.8375)">
<stop stop-color="#3588A3"/>
<stop offset="1" stop-color="#3588A3" stop-opacity="0"/>
</radialGradient>
</defs>
</svg>
