<svg width="14142" height="12091" viewBox="0 0 14142 12091" fill="none" xmlns="http://www.w3.org/2000/svg">
<path fill-rule="evenodd" clip-rule="evenodd" d="M7700.82 120.05C9355 28.7139 11166.8 -300.861 12438.3 766.208C13777.1 1889.85 14128.1 3773.11 14141.7 5525.71C14155.3 7294.16 13748.3 9100.39 12512.4 10359.7C11269.1 11626.4 9470.96 12133.3 7700.82 12088.3C5977.26 12044.4 4441.55 11241.6 3126.9 10120.9C1663.24 8873.26 -69.6455 7452.81 2.15933 5525.71C73.0945 3621.94 1902.7 2353.46 3456.98 1262.11C4704.85 385.914 6180.68 203.984 7700.82 120.05Z" fill="#C0A9C2" fill-opacity="0.1"/>
<path d="M11449.7 11130.8L9077.84 10522.8H11316.9L13742.8 11130.8H11449.7Z" fill="#C0A9C2"/>
<path d="M2999.12 11130.8L5370.96 10522.8H3132.24L706 11130.8H2999.12Z" fill="#C0A9C2"/>
<path d="M7333.84 8601.48C7333.84 8601.48 7331.6 8590.28 7328.08 8569.48" stroke="#2E353A" stroke-miterlimit="10"/>
<path d="M7317.52 8506.76C7283.28 8285 7225.36 7731.72 7442.64 7484.68C7718.16 7172.04 8048.4 7439.88 8968.72 7484.68C9889.04 7529.48 10362.6 7395.4 10372.2 6606.28C10381.8 5817.16 9842 5765 9842 5765H9500.88" stroke="#2E353A" stroke-miterlimit="10" stroke-dasharray="2.01 2.01"/>
<path d="M9468.56 5766.28H9436.56" stroke="#2E353A" stroke-miterlimit="10"/>
<path d="M9436.56 3342.28H9468.56" stroke="#2E353A" stroke-miterlimit="10"/>
<path d="M9532.56 3342.28H10684.6C10684.6 3342.28 11031.8 3372.36 11017.4 3773C11003 4173.64 10425.4 4549 10462.2 5349C10499 6149 11864.1 6029.64 12050 6830.6C12235.9 7631.56 10870.2 7591.56 10743.1 8005C10703.2 8097.69 10683.5 8197.85 10685.5 8298.76C10685.5 8433.16 10685.5 8752.52 10685.5 8889.16" stroke="#2E353A" stroke-miterlimit="10" stroke-dasharray="2 2"/>
<path d="M10685.5 8921.48V8953.48" stroke="#2E353A" stroke-miterlimit="10"/>
<path d="M5195.92 1074.76H5163.92" stroke="#2E353A" stroke-miterlimit="10"/>
<path d="M5100.24 1074.76H4536.08C4536.08 1074.76 3000.08 1057.16 3000.08 2354.76C3000.08 2955.4 3208.72 3404.36 3826.96 4142.28C4445.2 4880.2 4434.96 7186.76 4234 7600.52C4033.04 8014.28 3606.8 7952.52 3457.04 8176.52C3457.04 8176.52 3349.2 8289.48 3339.92 8427.4C3332.56 8535.88 3336.72 8891.4 3339.92 9037.32" stroke="#2E353A" stroke-miterlimit="10" stroke-dasharray="1.99 1.99"/>
<path d="M3338.32 9070.92C3338.32 9091.08 3338.32 9102.92 3338.32 9102.92" stroke="#2E353A" stroke-miterlimit="10"/>
<path d="M11616.4 4351.24C11542.7 4351.28 11470.3 4370.7 11406.5 4407.56C11412.1 4374.9 11415 4341.82 11415.1 4308.68C11415.2 4164.33 11361.3 4025.18 11264.1 3918.47C11166.9 3811.77 11033.3 3745.21 10889.6 3731.83C10745.9 3718.45 10602.3 3759.23 10487.1 3846.16C10371.9 3933.1 10293.2 4059.93 10266.6 4201.8C10196.5 4175.78 10121.6 4165.43 10047 4171.49C9972.47 4177.55 9900.16 4199.86 9835.17 4236.87C9770.18 4273.87 9714.08 4324.66 9670.82 4385.67C9627.56 4446.68 9598.2 4516.43 9584.79 4590C9571.38 4663.58 9574.25 4739.2 9593.2 4811.55C9612.15 4883.9 9646.72 4951.21 9694.48 5008.77C9742.24 5066.32 9802.03 5112.71 9869.64 5144.68C9937.26 5176.65 10011.1 5193.41 10085.8 5193.8H11616.4C11728 5193.8 11835 5149.47 11914 5070.55C11992.9 4991.64 12037.2 4884.6 12037.2 4773C12037.2 4661.4 11992.9 4554.37 11914 4475.45C11835 4396.53 11728 4352.2 11616.4 4352.2V4351.24Z" fill="white" stroke="#2E353A" stroke-miterlimit="10"/>
<path d="M11344.4 5301H11472.4" stroke="#2E353A" stroke-linecap="round" stroke-linejoin="round"/>
<path d="M10720.4 5301H11168.4" stroke="#2E353A" stroke-linecap="round" stroke-linejoin="round"/>
<path d="M10296.7 3755.08C10362.2 3700.01 10443.1 3666.49 10528.4 3659.08" stroke="#2E353A" stroke-linecap="round" stroke-linejoin="round"/>
<path d="M10144.4 3989C10155.9 3938.4 10177.7 3890.7 10208.4 3848.84" stroke="#2E353A" stroke-linecap="round" stroke-linejoin="round"/>
<path d="M5285.2 6299.4C5174.41 6299.48 5065.59 6328.73 4969.68 6384.2C4978.44 6335.09 4982.83 6285.29 4982.8 6235.4C4982.96 6018.44 4902.05 5809.25 4755.95 5648.85C4609.85 5488.46 4409.09 5388.44 4193.06 5368.41C3977.02 5348.37 3761.3 5409.77 3588.2 5540.57C3415.09 5671.36 3297.1 5862.11 3257.36 6075.4C3152.27 6036.84 3040.01 6021.71 2928.46 6031.09C2816.91 6040.47 2708.76 6074.12 2611.58 6129.68C2514.4 6185.25 2430.54 6261.39 2365.87 6352.77C2301.21 6444.15 2257.31 6548.56 2237.24 6658.69C2217.16 6768.82 2221.41 6882.01 2249.68 6990.33C2277.95 7098.64 2329.56 7199.47 2400.89 7285.75C2472.22 7372.03 2561.54 7441.67 2662.62 7489.79C2763.69 7537.92 2874.06 7563.37 2986 7564.36H5285.2C5450.4 7560.64 5607.58 7492.41 5723.09 7374.26C5838.61 7256.11 5903.3 7097.44 5903.3 6932.2C5903.3 6766.96 5838.61 6608.29 5723.09 6490.14C5607.58 6371.99 5450.4 6303.76 5285.2 6300.04V6299.4Z" fill="white" stroke="#2E353A" stroke-miterlimit="10"/>
<path d="M2395.6 7500.04C2427.79 7521.41 2461.48 7540.45 2496.4 7557" stroke="#2E353A" stroke-linecap="round" stroke-linejoin="round"/>
<path d="M2144.4 7205C2175.05 7277.87 2219.61 7344.07 2275.6 7399.88" stroke="#2E353A" stroke-linecap="round" stroke-linejoin="round"/>
<path d="M3562.96 5317C3695.88 5225.54 3855.28 5180.54 4016.4 5189" stroke="#2E353A" stroke-linecap="round" stroke-linejoin="round"/>
<path d="M3424.4 5445C3446.7 5415.86 3472.02 5389.15 3499.92 5365.32" stroke="#2E353A" stroke-linecap="round" stroke-linejoin="round"/>
<path d="M9436.56 3165.32H9284.56V3567.24H9436.56V3165.32Z" fill="#2E353A" stroke="#2E353A" stroke-miterlimit="10"/>
<path d="M9436.56 5536.2H9284.56V5938.12H9436.56V5536.2Z" fill="#2E353A" stroke="#2E353A" stroke-miterlimit="10"/>
<path d="M5347.92 839.88H5195.92V1241.8H5347.92V839.88Z" fill="#2E353A" stroke="#2E353A" stroke-miterlimit="10"/>
<path d="M5347.92 4365.96H5195.92V4767.88H5347.92V4365.96Z" fill="#2E353A" stroke="#2E353A" stroke-miterlimit="10"/>
<path d="M9334.48 617.48H5333.52V1484.04H9334.48V617.48Z" fill="white" stroke="#2E353A" stroke-miterlimit="10"/>
<path d="M8283.28 838.6H5525.84V1262.92H8283.28V838.6Z" fill="#C0A9C2" stroke="#2E353A" stroke-miterlimit="10"/>
<path d="M8656.72 1139.08C8715.75 1139.08 8763.6 1091.23 8763.6 1032.2C8763.6 973.172 8715.75 925.32 8656.72 925.32C8597.69 925.32 8549.84 973.172 8549.84 1032.2C8549.84 1091.23 8597.69 1139.08 8656.72 1139.08Z" fill="white" stroke="#2E353A" stroke-miterlimit="10"/>
<path d="M9182.48 1032.2C9182.48 1011.06 9176.21 990.397 9164.47 972.821C9152.72 955.244 9136.03 941.546 9116.5 933.456C9096.97 925.367 9075.48 923.25 9054.75 927.374C9034.02 931.498 9014.97 941.677 9000.02 956.625C8985.08 971.572 8974.9 990.616 8970.77 1011.35C8966.65 1032.08 8968.77 1053.57 8976.86 1073.1C8984.95 1092.63 8998.64 1109.32 9016.22 1121.07C9033.8 1132.81 9054.46 1139.08 9075.6 1139.08C9103.95 1139.08 9131.13 1127.82 9151.18 1107.78C9171.22 1087.73 9182.48 1060.55 9182.48 1032.2V1032.2Z" fill="#C0A9C2" stroke="#2E353A" stroke-miterlimit="10"/>
<path d="M8033.04 1139.08C8092.07 1139.08 8139.92 1091.23 8139.92 1032.2C8139.92 973.172 8092.07 925.32 8033.04 925.32C7974.01 925.32 7926.16 973.172 7926.16 1032.2C7926.16 1091.23 7974.01 1139.08 8033.04 1139.08Z" fill="white" stroke="#2E353A" stroke-miterlimit="10"/>
<path d="M9182.8 1484.04H5485.52V1780.68H9182.8V1484.04Z" fill="#2E353A" stroke="#2E353A" stroke-miterlimit="10"/>
<path d="M9334.48 1780.68H5333.52V2647.24H9334.48V1780.68Z" fill="white" stroke="#2E353A" stroke-miterlimit="10"/>
<path d="M8283.28 2001.8H5525.84V2426.12H8283.28V2001.8Z" fill="#C0A9C2" stroke="#2E353A" stroke-miterlimit="10"/>
<path d="M8656.72 2302.6C8715.75 2302.6 8763.6 2254.75 8763.6 2195.72C8763.6 2136.69 8715.75 2088.84 8656.72 2088.84C8597.69 2088.84 8549.84 2136.69 8549.84 2195.72C8549.84 2254.75 8597.69 2302.6 8656.72 2302.6Z" fill="#C0A9C2" stroke="#2E353A" stroke-miterlimit="10"/>
<path d="M9182.48 2195.72C9182.48 2174.58 9176.21 2153.92 9164.47 2136.34C9152.72 2118.76 9136.03 2105.07 9116.5 2096.98C9096.97 2088.89 9075.48 2086.77 9054.75 2090.89C9034.02 2095.02 9014.97 2105.2 9000.02 2120.14C8985.08 2135.09 8974.9 2154.14 8970.77 2174.87C8966.65 2195.6 8968.77 2217.09 8976.86 2236.62C8984.95 2256.15 8998.64 2272.84 9016.22 2284.59C9033.8 2296.33 9054.46 2302.6 9075.6 2302.6C9089.65 2302.64 9103.57 2299.91 9116.55 2294.55C9129.54 2289.19 9141.34 2281.32 9151.27 2271.39C9161.2 2261.46 9169.07 2249.66 9174.43 2236.67C9179.79 2223.68 9182.52 2209.77 9182.48 2195.72V2195.72Z" fill="white" stroke="#2E353A" stroke-miterlimit="10"/>
<path d="M8033.04 2302.6C8092.07 2302.6 8139.92 2254.75 8139.92 2195.72C8139.92 2136.69 8092.07 2088.84 8033.04 2088.84C7974.01 2088.84 7926.16 2136.69 7926.16 2195.72C7926.16 2254.75 7974.01 2302.6 8033.04 2302.6Z" fill="white" stroke="#2E353A" stroke-miterlimit="10"/>
<path d="M9182.8 2647.56H5485.52V2944.2H9182.8V2647.56Z" fill="#2E353A" stroke="#2E353A" stroke-miterlimit="10"/>
<path d="M9334.48 2944.2H5333.52V3810.76H9334.48V2944.2Z" fill="white" stroke="#2E353A" stroke-miterlimit="10"/>
<path d="M8283.28 3165.32H5525.84V3589.64H8283.28V3165.32Z" fill="#C0A9C2" stroke="#2E353A" stroke-miterlimit="10"/>
<path d="M8656.72 3465.8C8715.75 3465.8 8763.6 3417.95 8763.6 3358.92C8763.6 3299.89 8715.75 3252.04 8656.72 3252.04C8597.69 3252.04 8549.84 3299.89 8549.84 3358.92C8549.84 3417.95 8597.69 3465.8 8656.72 3465.8Z" fill="white" stroke="#2E353A" stroke-miterlimit="10"/>
<path d="M9182.48 3358.92C9182.48 3337.78 9176.21 3317.12 9164.47 3299.54C9152.72 3281.96 9136.03 3268.27 9116.5 3260.18C9096.97 3252.09 9075.48 3249.97 9054.75 3254.09C9034.02 3258.22 9014.97 3268.4 9000.02 3283.34C8985.08 3298.29 8974.9 3317.34 8970.77 3338.07C8966.65 3358.8 8968.77 3380.29 8976.86 3399.82C8984.95 3419.35 8998.64 3436.04 9016.22 3447.79C9033.8 3459.53 9054.46 3465.8 9075.6 3465.8C9103.95 3465.8 9131.13 3454.54 9151.18 3434.5C9171.22 3414.45 9182.48 3387.27 9182.48 3358.92V3358.92Z" fill="#C0A9C2" stroke="#2E353A" stroke-miterlimit="10"/>
<path d="M8033.04 3465.8C8092.07 3465.8 8139.92 3417.95 8139.92 3358.92C8139.92 3299.89 8092.07 3252.04 8033.04 3252.04C7974.01 3252.04 7926.16 3299.89 7926.16 3358.92C7926.16 3417.95 7974.01 3465.8 8033.04 3465.8Z" fill="white" stroke="#2E353A" stroke-miterlimit="10"/>
<path d="M9182.8 3810.76H5485.52V4107.4H9182.8V3810.76Z" fill="#2E353A" stroke="#2E353A" stroke-miterlimit="10"/>
<path d="M9334.48 4107.4H5333.52V4973.96H9334.48V4107.4Z" fill="white" stroke="#2E353A" stroke-miterlimit="10"/>
<path d="M8283.28 4328.52H5525.84V4752.84H8283.28V4328.52Z" fill="#C0A9C2" stroke="#2E353A" stroke-miterlimit="10"/>
<path d="M8656.72 4629.32C8715.75 4629.32 8763.6 4581.47 8763.6 4522.44C8763.6 4463.41 8715.75 4415.56 8656.72 4415.56C8597.69 4415.56 8549.84 4463.41 8549.84 4522.44C8549.84 4581.47 8597.69 4629.32 8656.72 4629.32Z" fill="#C0A9C2" stroke="#2E353A" stroke-miterlimit="10"/>
<path d="M9182.48 4522.44C9182.48 4501.3 9176.21 4480.64 9164.47 4463.06C9152.72 4445.48 9136.03 4431.79 9116.5 4423.7C9096.97 4415.61 9075.48 4413.49 9054.75 4417.61C9034.02 4421.74 9014.97 4431.92 9000.02 4446.86C8985.08 4461.81 8974.9 4480.86 8970.77 4501.59C8966.65 4522.32 8968.77 4543.81 8976.86 4563.34C8984.95 4582.87 8998.64 4599.56 9016.22 4611.31C9033.8 4623.05 9054.46 4629.32 9075.6 4629.32C9089.65 4629.36 9103.57 4626.63 9116.55 4621.27C9129.54 4615.91 9141.34 4608.04 9151.27 4598.11C9161.2 4588.18 9169.07 4576.38 9174.43 4563.39C9179.79 4550.41 9182.52 4536.49 9182.48 4522.44V4522.44Z" fill="white" stroke="#2E353A" stroke-miterlimit="10"/>
<path d="M8033.04 4629.32C8092.07 4629.32 8139.92 4581.47 8139.92 4522.44C8139.92 4463.41 8092.07 4415.56 8033.04 4415.56C7974.01 4415.56 7926.16 4463.41 7926.16 4522.44C7926.16 4581.47 7974.01 4629.32 8033.04 4629.32Z" fill="white" stroke="#2E353A" stroke-miterlimit="10"/>
<path d="M9182.8 4974.28H5485.52V5270.92H9182.8V4974.28Z" fill="#2E353A" stroke="#2E353A" stroke-miterlimit="10"/>
<path d="M9334.48 5270.92H5333.52V6137.48H9334.48V5270.92Z" fill="white" stroke="#2E353A" stroke-miterlimit="10"/>
<path d="M8283.28 5492.04H5525.84V5916.36H8283.28V5492.04Z" fill="#C0A9C2" stroke="#2E353A" stroke-miterlimit="10"/>
<path d="M8656.72 5792.52C8715.75 5792.52 8763.6 5744.67 8763.6 5685.64C8763.6 5626.61 8715.75 5578.76 8656.72 5578.76C8597.69 5578.76 8549.84 5626.61 8549.84 5685.64C8549.84 5744.67 8597.69 5792.52 8656.72 5792.52Z" fill="white" stroke="#2E353A" stroke-miterlimit="10"/>
<path d="M9182.48 5685.64C9182.48 5664.5 9176.21 5643.84 9164.47 5626.26C9152.72 5608.68 9136.03 5594.99 9116.5 5586.9C9096.97 5578.81 9075.48 5576.69 9054.75 5580.81C9034.02 5584.94 9014.97 5595.12 9000.02 5610.06C8985.08 5625.01 8974.9 5644.06 8970.77 5664.79C8966.65 5685.52 8968.77 5707.01 8976.86 5726.54C8984.95 5746.07 8998.64 5762.76 9016.22 5774.51C9033.8 5786.25 9054.46 5792.52 9075.6 5792.52C9103.95 5792.52 9131.13 5781.26 9151.18 5761.22C9171.22 5741.17 9182.48 5713.99 9182.48 5685.64V5685.64Z" fill="#C0A9C2" stroke="#2E353A" stroke-miterlimit="10"/>
<path d="M8033.04 5792.52C8092.07 5792.52 8139.92 5744.67 8139.92 5685.64C8139.92 5626.61 8092.07 5578.76 8033.04 5578.76C7974.01 5578.76 7926.16 5626.61 7926.16 5685.64C7926.16 5744.67 7974.01 5792.52 8033.04 5792.52Z" fill="white" stroke="#2E353A" stroke-miterlimit="10"/>
<path d="M7600.4 501H7824.4" stroke="#2E353A" stroke-linecap="round" stroke-linejoin="round"/>
<path d="M6048.4 501H7344.4" stroke="#2E353A" stroke-linecap="round" stroke-linejoin="round"/>
<path d="M5168.4 5765V5925" stroke="#2E353A" stroke-linecap="round" stroke-linejoin="round"/>
<path d="M5168.4 5269V5605" stroke="#2E353A" stroke-linecap="round" stroke-linejoin="round"/>
<path d="M11069.5 2311.88L10845.5 1868.68C10844.3 1865.59 10842.4 1862.78 10840 1860.45C10837.6 1858.11 10834.8 1856.29 10831.6 1855.1C10828.5 1853.92 10825.2 1853.38 10821.8 1853.54C10818.5 1853.7 10815.2 1854.54 10812.2 1856.02C10809.2 1857.49 10806.6 1859.57 10804.4 1862.12C10802.3 1864.67 10800.7 1867.64 10799.7 1870.84C10798.7 1874.04 10798.4 1877.4 10798.8 1880.72C10799.2 1884.04 10800.3 1887.24 10802 1890.12L11016.1 2338.12C11011.7 2342.64 11008.6 2348.31 11007.3 2354.47C11005.9 2360.63 11006.3 2367.05 11008.4 2373L11235 2797.64C11241 2809.8 11260.2 2812.36 11278.5 2803.4C11296.7 2794.44 11306.3 2777.48 11300.2 2765.64L11101.8 2326.92C11098.6 2321.49 11093.7 2317.16 11088 2314.48C11082.2 2311.81 11075.8 2310.9 11069.5 2311.88Z" fill="#2E353A"/>
<path d="M12309.8 2311.88L12535.4 1868.68C12538.2 1862.96 12543.1 1858.56 12549.1 1856.46C12555.1 1854.36 12561.7 1854.73 12567.4 1857.48C12573 1860.37 12577.3 1865.29 12579.4 1871.25C12581.5 1877.2 12581.2 1883.73 12578.6 1889.48L12364.2 2337.48C12368.7 2341.94 12371.8 2347.64 12373.1 2353.85C12374.3 2360.06 12373.7 2366.5 12371.3 2372.36L12144.7 2797C12138.6 2809.16 12119.1 2811.72 12101.2 2802.76C12083.3 2793.8 12073.4 2776.84 12079.1 2765L12277.8 2326.28C12281.2 2321.02 12286 2316.86 12291.7 2314.3C12297.4 2311.74 12303.7 2310.9 12309.8 2311.88Z" fill="#2E353A"/>
<path d="M12395.6 2816.84H10988.6L11094.2 2637.64H12290L12395.6 2816.84Z" fill="white" stroke="#2E353A" stroke-linecap="round" stroke-linejoin="round"/>
<path d="M12395.3 2816.84H10988.6V2996.04H12395.3V2816.84Z" fill="white" stroke="#2E353A" stroke-linecap="round" stroke-linejoin="round"/>
<path d="M11667.6 2946.12H11126.8C11116.3 2946.04 11106.3 2941.82 11098.9 2934.39C11091.6 2926.95 11087.4 2916.91 11087.4 2906.44C11087.4 2896 11091.6 2885.99 11099 2878.61C11106.3 2871.23 11116.4 2867.08 11126.8 2867.08H11667.6C11678 2867.08 11688 2871.23 11695.4 2878.61C11702.8 2885.99 11707 2896 11707 2906.44V2906.44C11707 2916.91 11702.8 2926.95 11695.5 2934.39C11688.1 2941.82 11678.1 2946.04 11667.6 2946.12V2946.12Z" fill="white" stroke="#2E353A" stroke-miterlimit="10"/>
<path d="M11995 2936.2C12014 2936.2 12029.5 2920.73 12029.5 2901.64C12029.5 2882.55 12014 2867.08 11995 2867.08C11975.9 2867.08 11960.4 2882.55 11960.4 2901.64C11960.4 2920.73 11975.9 2936.2 11995 2936.2Z" fill="white" stroke="#2E353A" stroke-miterlimit="10"/>
<path d="M12172.9 2901.64C12172.9 2894.74 12170.8 2888 12167 2882.26C12163.2 2876.53 12157.7 2872.05 12151.3 2869.41C12145 2866.77 12138 2866.08 12131.2 2867.43C12124.4 2868.78 12118.2 2872.1 12113.3 2876.98C12108.5 2881.85 12105.1 2888.07 12103.8 2894.84C12102.4 2901.6 12103.1 2908.61 12105.8 2914.99C12108.4 2921.36 12112.9 2926.81 12118.6 2930.64C12124.4 2934.47 12131.1 2936.52 12138 2936.52C12142.6 2936.56 12147.1 2935.69 12151.4 2933.95C12155.6 2932.21 12159.5 2929.65 12162.8 2926.4C12166 2923.15 12168.6 2919.29 12170.3 2915.04C12172 2910.79 12172.9 2906.23 12172.9 2901.64V2901.64Z" fill="white" stroke="#2E353A" stroke-miterlimit="10"/>
<path d="M12281.4 2936.2C12300.4 2936.2 12315.9 2920.73 12315.9 2901.64C12315.9 2882.55 12300.4 2867.08 12281.4 2867.08C12262.3 2867.08 12246.8 2882.55 12246.8 2901.64C12246.8 2920.73 12262.3 2936.2 12281.4 2936.2Z" fill="white" stroke="#2E353A" stroke-miterlimit="10"/>
<path d="M12887.1 1809.16C12891.7 1831.16 12893.9 1853.58 12893.8 1876.04C12893.8 1878.92 12893.8 1881.48 12893.8 1884.36" stroke="#2E353A" stroke-width="0.5" stroke-linecap="round" stroke-linejoin="round"/>
<path d="M12379 1597.96C12420.3 1570.77 12467.1 1553.15 12516.1 1546.38C12565.1 1539.61 12615 1543.86 12662.1 1558.83C12709.2 1573.79 12752.4 1599.09 12788.5 1632.88C12824.6 1666.66 12852.7 1708.09 12870.8 1754.12" stroke="#2E353A" stroke-width="0.5" stroke-linecap="round" stroke-linejoin="round"/>
<path d="M12471.8 1646.28C12453.9 1653.25 12437 1662.27 12421.2 1673.16" stroke="#2E353A" stroke-width="0.5" stroke-linecap="round" stroke-linejoin="round"/>
<path d="M12807.4 1882.12C12807.6 1880.1 12807.6 1878.06 12807.4 1876.04C12807.4 1810.61 12781.4 1747.85 12735.2 1701.58C12688.9 1655.31 12626.2 1629.32 12560.7 1629.32C12547.9 1629.25 12535 1630.32 12522.3 1632.52" stroke="#2E353A" stroke-width="0.5" stroke-linecap="round" stroke-linejoin="round"/>
<path d="M12727.4 1880.2V1876.04C12727.4 1831.91 12709.9 1789.58 12678.7 1758.38C12647.5 1727.17 12605.2 1709.64 12561 1709.64C12524.7 1709.61 12489.3 1721.65 12460.6 1743.88" stroke="#2E353A" stroke-width="0.5" stroke-linecap="round" stroke-linejoin="round"/>
<path d="M12526.2 1791.24C12515.6 1795.66 12505.9 1802.07 12497.7 1810.12" stroke="#2E353A" stroke-width="0.5" stroke-linecap="round" stroke-linejoin="round"/>
<path d="M12652.9 1878.28V1876.04C12652.9 1851.68 12643.2 1828.32 12626 1811.1C12608.8 1793.88 12585.4 1784.2 12561 1784.2" stroke="#2E353A" stroke-width="0.5" stroke-linecap="round" stroke-linejoin="round"/>
<path d="M10493.8 1829C10491.5 1844.79 10490.4 1860.72 10490.3 1876.68C10490.3 1879.56 10490.3 1882.12 10490.3 1885" stroke="#2E353A" stroke-width="0.5" stroke-linecap="round" stroke-linejoin="round"/>
<path d="M10889.4 1549.96C10867.6 1545.44 10845.4 1543.19 10823.1 1543.24C10753.4 1543.21 10685.5 1565.06 10628.9 1605.71C10572.3 1646.36 10529.8 1703.75 10507.6 1769.8" stroke="#2E353A" stroke-width="0.5" stroke-linecap="round" stroke-linejoin="round"/>
<path d="M11005.2 1597.96C10984.1 1584.03 10961.4 1572.54 10937.7 1563.72" stroke="#2E353A" stroke-width="0.5" stroke-linecap="round" stroke-linejoin="round"/>
<path d="M10803.3 1630.28C10809.7 1630.28 10816.4 1630.28 10823.1 1630.28C10873.2 1630.33 10922.1 1645.62 10963.3 1674.12" stroke="#2E353A" stroke-width="0.5" stroke-linecap="round" stroke-linejoin="round"/>
<path d="M10576.7 1882.12C10576.7 1880.2 10576.7 1878.28 10576.7 1876.04C10576.7 1827.55 10591 1780.14 10617.8 1739.73C10644.7 1699.32 10682.8 1667.71 10727.4 1648.84" stroke="#2E353A" stroke-width="0.5" stroke-linecap="round" stroke-linejoin="round"/>
<path d="M10656.4 1880.2V1876.04C10656.4 1831.91 10673.9 1789.58 10705.1 1758.38C10736.3 1727.17 10778.7 1709.64 10822.8 1709.64C10859.2 1709.61 10894.5 1721.65 10923.3 1743.88" stroke="#2E353A" stroke-width="0.5" stroke-linecap="round" stroke-linejoin="round"/>
<path d="M10731.6 1878.28C10731.4 1877.54 10731.4 1876.78 10731.6 1876.04C10731.5 1857.98 10736.7 1840.3 10746.7 1825.22C10756.6 1810.13 10770.8 1798.32 10787.4 1791.28C10804 1784.23 10822.4 1782.26 10840.1 1785.61C10857.9 1788.96 10874.2 1797.49 10887.1 1810.12" stroke="#2E353A" stroke-width="0.5" stroke-linecap="round" stroke-linejoin="round"/>
<path d="M6644.56 7730.44L6420.56 7287.24C6417.8 7281.52 6412.87 7277.12 6406.88 7275.02C6400.88 7272.92 6394.29 7273.29 6388.56 7276.04C6382.95 7278.93 6378.66 7283.85 6376.58 7289.81C6374.5 7295.76 6374.78 7302.29 6377.36 7308.04L6591.76 7756.04C6587.33 7760.48 6584.3 7766.12 6583.05 7772.26C6581.8 7778.41 6582.38 7784.78 6584.72 7790.6L6811.28 8215.56C6817.36 8227.4 6836.88 8229.96 6854.8 8221.32C6872.72 8212.68 6882.64 8195.4 6876.88 8183.24L6678.16 7744.52C6674.48 7739.22 6669.36 7735.08 6663.41 7732.59C6657.46 7730.09 6650.92 7729.35 6644.56 7730.44V7730.44Z" fill="#2E353A"/>
<path d="M7885.2 7730.44L8109.2 7287.24C8110.46 7284.14 8112.34 7281.34 8114.73 7279.01C8117.12 7276.67 8119.96 7274.85 8123.08 7273.66C8126.2 7272.48 8129.54 7271.94 8132.88 7272.1C8136.21 7272.26 8139.48 7273.1 8142.48 7274.58C8145.48 7276.05 8148.14 7278.13 8150.29 7280.68C8152.45 7283.23 8154.06 7286.2 8155.02 7289.4C8155.98 7292.6 8156.28 7295.96 8155.88 7299.28C8155.48 7302.6 8154.41 7305.8 8152.72 7308.68L7938.64 7756.68C7943.02 7761.15 7945.99 7766.81 7947.18 7772.95C7948.37 7779.1 7947.74 7785.45 7945.36 7791.24L7718.8 8216.2C7712.72 8228.04 7693.52 8230.6 7675.28 8221.96C7657.04 8213.32 7647.44 8196.04 7653.2 8183.88L7851.92 7745.16C7855.5 7739.8 7860.52 7735.57 7866.42 7732.96C7872.31 7730.35 7878.83 7729.48 7885.2 7730.44V7730.44Z" fill="#2E353A"/>
<path d="M7970.64 8235.4H6563.92L6669.2 8056.52H7865.04L7970.64 8235.4Z" fill="white" stroke="#2E353A" stroke-linecap="round" stroke-linejoin="round"/>
<path d="M7970.64 8235.4H6563.92V8414.6H7970.64V8235.4Z" fill="white" stroke="#2E353A" stroke-linecap="round" stroke-linejoin="round"/>
<path d="M7242.96 8285.64H6701.84C6680.1 8285.64 6662.48 8303.26 6662.48 8325V8325.32C6662.48 8347.06 6680.1 8364.68 6701.84 8364.68H7242.96C7264.7 8364.68 7282.32 8347.06 7282.32 8325.32V8325C7282.32 8303.26 7264.7 8285.64 7242.96 8285.64Z" fill="white" stroke="#2E353A" stroke-miterlimit="10"/>
<path d="M7570 8355.08C7589.09 8355.08 7604.56 8339.61 7604.56 8320.52C7604.56 8301.43 7589.09 8285.96 7570 8285.96C7550.91 8285.96 7535.44 8301.43 7535.44 8320.52C7535.44 8339.61 7550.91 8355.08 7570 8355.08Z" fill="white" stroke="#2E353A" stroke-miterlimit="10"/>
<path d="M7747.92 8320.52C7747.98 8313.59 7745.98 8306.81 7742.17 8301.02C7738.37 8295.24 7732.92 8290.72 7726.54 8288.04C7720.15 8285.36 7713.11 8284.64 7706.31 8285.98C7699.52 8287.31 7693.27 8290.64 7688.38 8295.54C7683.48 8300.43 7680.15 8306.68 7678.81 8313.47C7677.48 8320.27 7678.2 8327.31 7680.88 8333.7C7683.56 8340.08 7688.08 8345.53 7693.86 8349.33C7699.65 8353.14 7706.43 8355.14 7713.36 8355.08C7722.52 8355.08 7731.32 8351.44 7737.8 8344.96C7744.28 8338.48 7747.92 8329.68 7747.92 8320.52V8320.52Z" fill="white" stroke="#2E353A" stroke-miterlimit="10"/>
<path d="M7856.4 8355.08C7875.49 8355.08 7890.96 8339.61 7890.96 8320.52C7890.96 8301.43 7875.49 8285.96 7856.4 8285.96C7837.31 8285.96 7821.84 8301.43 7821.84 8320.52C7821.84 8339.61 7837.31 8355.08 7856.4 8355.08Z" fill="white" stroke="#2E353A" stroke-miterlimit="10"/>
<path d="M8302.48 7006.28C8353.08 7035.46 8395.12 7077.42 8424.38 7127.97C8453.64 7178.52 8469.1 7235.87 8469.2 7294.28C8469.2 7297.16 8469.2 7299.72 8469.2 7302.6" stroke="#2E353A" stroke-width="0.5" stroke-linecap="round" stroke-linejoin="round"/>
<path d="M7954 7016.52C8008.19 6980.98 8071.59 6962.07 8136.4 6962.12C8173.1 6961.98 8209.56 6968.03 8244.24 6980.04" stroke="#2E353A" stroke-width="0.5" stroke-linecap="round" stroke-linejoin="round"/>
<path d="M8093.2 7051.72C8058.75 7058.18 8026.04 7071.81 7997.2 7091.72" stroke="#2E353A" stroke-width="0.5" stroke-linecap="round" stroke-linejoin="round"/>
<path d="M8384.4 7301C8384.4 7299.08 8384.4 7297.16 8384.4 7294.92C8384.31 7233.73 8361.51 7174.75 8320.42 7129.41C8279.34 7084.06 8222.88 7055.58 8162 7049.48" stroke="#2E353A" stroke-width="0.5" stroke-linecap="round" stroke-linejoin="round"/>
<path d="M8256.4 7179.08C8240.95 7163.02 8222.41 7150.26 8201.9 7141.57C8181.38 7132.88 8159.32 7128.44 8137.04 7128.52C8100.64 7128.54 8065.25 7140.45 8036.24 7162.44" stroke="#2E353A" stroke-width="0.5" stroke-linecap="round" stroke-linejoin="round"/>
<path d="M8302.48 7298.76C8302.48 7298.76 8302.48 7296.2 8302.48 7294.6C8302.34 7272.61 8297.89 7250.87 8289.36 7230.6" stroke="#2E353A" stroke-width="0.5" stroke-linecap="round" stroke-linejoin="round"/>
<path d="M8114 7205C8098.47 7208.96 8084.24 7216.9 8072.72 7228.04" stroke="#2E353A" stroke-width="0.5" stroke-linecap="round" stroke-linejoin="round"/>
<path d="M8227.92 7296.84C8227.92 7296.84 8227.92 7296.84 8227.92 7294.6C8228.2 7274.29 8221.72 7254.46 8209.5 7238.24C8197.27 7222.02 8180 7210.32 8160.4 7205" stroke="#2E353A" stroke-width="0.5" stroke-linecap="round" stroke-linejoin="round"/>
<path d="M6070.16 7238.92C6066.94 7257.3 6065.33 7275.94 6065.36 7294.6C6065.36 7297.48 6065.36 7300.04 6065.36 7302.92" stroke="#2E353A" stroke-width="0.5" stroke-linecap="round" stroke-linejoin="round"/>
<path d="M6266.96 6988.68C6226.04 7006.43 6189.06 7032.16 6158.18 7064.35C6127.3 7096.55 6103.15 7134.57 6087.12 7176.2" stroke="#2E353A" stroke-width="0.5" stroke-linecap="round" stroke-linejoin="round"/>
<path d="M6580.24 7016.52C6526.16 6980.99 6462.86 6962.08 6398.16 6962.12C6375.69 6962.06 6353.28 6964.31 6331.28 6968.84" stroke="#2E353A" stroke-width="0.5" stroke-linecap="round" stroke-linejoin="round"/>
<path d="M6211.92 7133C6251.76 7087.24 6307.05 7057.73 6367.25 7050.12C6427.45 7042.51 6488.34 7057.31 6538.32 7091.72" stroke="#2E353A" stroke-width="0.5" stroke-linecap="round" stroke-linejoin="round"/>
<path d="M6151.76 7301C6151.76 7299.08 6151.76 7297.16 6151.76 7294.92C6151.78 7258.41 6159.87 7222.35 6175.44 7189.32" stroke="#2E353A" stroke-width="0.5" stroke-linecap="round" stroke-linejoin="round"/>
<path d="M6279.12 7178.44C6307.49 7149.5 6345.44 7131.91 6385.86 7128.96C6426.27 7126.02 6466.38 7137.92 6498.64 7162.44" stroke="#2E353A" stroke-width="0.5" stroke-linecap="round" stroke-linejoin="round"/>
<path d="M6232.08 7298.76C6232.08 7298.76 6232.08 7296.2 6232.08 7294.6C6232.01 7269.78 6237.59 7245.26 6248.4 7222.92" stroke="#2E353A" stroke-width="0.5" stroke-linecap="round" stroke-linejoin="round"/>
<path d="M6338 7225.16C6355.42 7210.32 6377.72 7202.47 6400.6 7203.12C6423.47 7203.77 6445.29 7212.88 6461.84 7228.68" stroke="#2E353A" stroke-width="0.5" stroke-linecap="round" stroke-linejoin="round"/>
<path d="M6306.64 7296.84C6306.64 7296.84 6306.64 7296.84 6306.64 7294.6C6306.64 7279.52 6310.38 7264.68 6317.52 7251.4" stroke="#2E353A" stroke-width="0.5" stroke-linecap="round" stroke-linejoin="round"/>
<path d="M1450.64 5031.88L1226.64 4588.68C1225.38 4585.58 1223.5 4582.78 1221.11 4580.45C1218.72 4578.11 1215.88 4576.29 1212.76 4575.1C1209.64 4573.92 1206.3 4573.38 1202.96 4573.54C1199.63 4573.7 1196.36 4574.54 1193.36 4576.02C1190.36 4577.49 1187.7 4579.57 1185.55 4582.12C1183.39 4584.67 1181.78 4587.64 1180.82 4590.84C1179.86 4594.04 1179.56 4597.4 1179.96 4600.72C1180.36 4604.04 1181.43 4607.24 1183.12 4610.12L1397.2 5058.12C1392.75 5062.61 1389.64 5068.26 1388.23 5074.42C1386.81 5080.58 1387.15 5087.02 1389.2 5093L1615.76 5517.96C1621.84 5529.8 1641.04 5532.36 1659.28 5523.4C1677.52 5514.44 1687.12 5497.8 1681.04 5485.64L1482.64 5046.92C1479.21 5041.71 1474.4 5037.55 1468.76 5034.9C1463.11 5032.25 1456.84 5031.2 1450.64 5031.88V5031.88Z" fill="#2E353A"/>
<path d="M2690.96 5031.88L2914.96 4588.68C2917.72 4582.96 2922.64 4578.56 2928.64 4576.46C2934.64 4574.36 2941.23 4574.73 2946.96 4577.48C2952.57 4580.37 2956.85 4585.29 2958.94 4591.25C2961.02 4597.2 2960.74 4603.73 2958.16 4609.48L2743.76 5057.48C2748.65 5061.81 2752.11 5067.53 2753.65 5073.88C2755.2 5080.23 2754.76 5086.91 2752.4 5093L2525.84 5517.96C2519.76 5529.8 2500.24 5532.36 2482.32 5523.4C2464.4 5514.44 2454.48 5497.8 2460.24 5485.64L2658.96 5046.92C2662.37 5041.69 2667.17 5037.51 2672.82 5034.85C2678.47 5032.19 2684.75 5031.16 2690.96 5031.88V5031.88Z" fill="#2E353A"/>
<path d="M2776.72 5536.84H1370L1475.28 5357.64H2671.12L2776.72 5536.84Z" fill="white" stroke="#2E353A" stroke-linecap="round" stroke-linejoin="round"/>
<path d="M2776.4 5536.84H1369.68V5716.04H2776.4V5536.84Z" fill="white" stroke="#2E353A" stroke-linecap="round" stroke-linejoin="round"/>
<path d="M2048.4 5666.12H1507.92C1497.45 5666.04 1487.44 5661.82 1480.07 5654.39C1472.7 5646.95 1468.56 5636.91 1468.56 5626.44V5626.44C1468.56 5616 1472.71 5605.99 1480.09 5598.61C1487.47 5591.23 1497.48 5587.08 1507.92 5587.08H2048.4C2058.84 5587.08 2068.85 5591.23 2076.23 5598.61C2083.61 5605.99 2087.76 5616 2087.76 5626.44C2087.76 5636.91 2083.62 5646.95 2076.25 5654.39C2068.88 5661.82 2058.87 5666.04 2048.4 5666.12V5666.12Z" fill="white" stroke="#2E353A" stroke-miterlimit="10"/>
<path d="M2376.08 5656.2C2395.17 5656.2 2410.64 5640.73 2410.64 5621.64C2410.64 5602.55 2395.17 5587.08 2376.08 5587.08C2356.99 5587.08 2341.52 5602.55 2341.52 5621.64C2341.52 5640.73 2356.99 5656.2 2376.08 5656.2Z" fill="white" stroke="#2E353A" stroke-miterlimit="10"/>
<path d="M2519.12 5656.2C2538.21 5656.2 2553.68 5640.73 2553.68 5621.64C2553.68 5602.55 2538.21 5587.08 2519.12 5587.08C2500.03 5587.08 2484.56 5602.55 2484.56 5621.64C2484.56 5640.73 2500.03 5656.2 2519.12 5656.2Z" fill="white" stroke="#2E353A" stroke-miterlimit="10"/>
<path d="M2697.04 5621.64C2697.04 5614.73 2694.99 5607.97 2691.14 5602.23C2687.29 5596.49 2681.82 5592.02 2675.43 5589.39C2669.04 5586.76 2662.01 5586.08 2655.24 5587.46C2648.46 5588.83 2642.25 5592.18 2637.38 5597.09C2632.52 5602 2629.22 5608.25 2627.91 5615.03C2626.6 5621.82 2627.34 5628.84 2630.03 5635.21C2632.72 5641.58 2637.24 5647 2643.01 5650.8C2648.79 5654.59 2655.57 5656.58 2662.48 5656.52C2667.04 5656.52 2671.57 5655.62 2675.78 5653.86C2679.99 5652.1 2683.82 5649.53 2687.03 5646.28C2690.24 5643.04 2692.78 5639.19 2694.5 5634.96C2696.22 5630.73 2697.08 5626.21 2697.04 5621.64V5621.64Z" fill="white" stroke="#2E353A" stroke-miterlimit="10"/>
<path d="M3256.72 4486.92C3268.83 4522.03 3274.99 4558.91 3274.96 4596.04C3274.96 4598.92 3274.96 4601.48 3274.96 4604.36" stroke="#2E353A" stroke-width="0.5" stroke-linecap="round" stroke-linejoin="round"/>
<path d="M3008.4 4269.64C3059.33 4279.93 3107.16 4301.95 3148.09 4333.94C3189.03 4365.93 3221.95 4407.03 3244.24 4453.96" stroke="#2E353A" stroke-width="0.5" stroke-linecap="round" stroke-linejoin="round"/>
<path d="M2760.08 4317.96C2804.49 4288.67 2855.32 4270.56 2908.24 4265.16" stroke="#2E353A" stroke-width="0.5" stroke-linecap="round" stroke-linejoin="round"/>
<path d="M3127.76 4433.48C3087.95 4387.94 3032.76 4358.65 2972.73 4351.21C2912.7 4343.77 2852.04 4358.71 2802.32 4393.16" stroke="#2E353A" stroke-width="0.5" stroke-linecap="round" stroke-linejoin="round"/>
<path d="M3188.56 4602.12C3188.73 4600.1 3188.73 4598.06 3188.56 4596.04C3188.61 4556.52 3179.17 4517.56 3161.04 4482.44" stroke="#2E353A" stroke-width="0.5" stroke-linecap="round" stroke-linejoin="round"/>
<path d="M2907.92 4433.48C2883.71 4439.03 2861.07 4449.97 2841.68 4465.48" stroke="#2E353A" stroke-width="0.5" stroke-linecap="round" stroke-linejoin="round"/>
<path d="M3108.56 4600.2V4596.04C3108.58 4558.21 3095.68 4521.5 3071.99 4492C3048.31 4462.5 3015.26 4441.96 2978.32 4433.8" stroke="#2E353A" stroke-width="0.5" stroke-linecap="round" stroke-linejoin="round"/>
<path d="M3014.48 4539.4C3006.6 4529.27 2996.67 4520.91 2985.33 4514.88C2974 4508.85 2961.52 4505.28 2948.72 4504.41C2935.91 4503.53 2923.06 4505.37 2911.01 4509.8C2898.96 4514.23 2887.99 4521.15 2878.8 4530.12" stroke="#2E353A" stroke-width="0.5" stroke-linecap="round" stroke-linejoin="round"/>
<path d="M3034 4598.28V4596.04C3034.05 4587.05 3032.76 4578.09 3030.16 4569.48" stroke="#2E353A" stroke-width="0.5" stroke-linecap="round" stroke-linejoin="round"/>
<path d="M1146 4268.36C1069.04 4282.04 999.35 4322.37 949.148 4382.29C898.946 4442.2 871.436 4517.87 871.439 4596.04C871.439 4598.92 871.439 4601.48 871.439 4604.36" stroke="#2E353A" stroke-width="0.5" stroke-linecap="round" stroke-linejoin="round"/>
<path d="M1386.32 4317.96C1338.49 4286.6 1283.38 4268.09 1226.32 4264.2" stroke="#2E353A" stroke-width="0.5" stroke-linecap="round" stroke-linejoin="round"/>
<path d="M1258.64 4357C1289.22 4363.63 1318.3 4375.9 1344.4 4393.16" stroke="#2E353A" stroke-width="0.5" stroke-linecap="round" stroke-linejoin="round"/>
<path d="M957.84 4602.12C957.84 4600.2 957.84 4598.28 957.84 4596.04C957.84 4530.61 983.834 4467.85 1030.1 4421.58C1076.37 4375.31 1139.13 4349.32 1204.56 4349.32" stroke="#2E353A" stroke-width="0.5" stroke-linecap="round" stroke-linejoin="round"/>
<path d="M1075.92 4490.44C1103.13 4457.15 1142.23 4435.76 1184.94 4430.8C1227.65 4425.85 1270.61 4437.71 1304.72 4463.88" stroke="#2E353A" stroke-width="0.5" stroke-linecap="round" stroke-linejoin="round"/>
<path d="M1037.84 4600.2V4596.04C1037.83 4574.04 1042.29 4552.26 1050.96 4532.04" stroke="#2E353A" stroke-width="0.5" stroke-linecap="round" stroke-linejoin="round"/>
<path d="M1220.56 4505.8C1238.39 4509.07 1254.87 4517.53 1267.92 4530.12" stroke="#2E353A" stroke-width="0.5" stroke-linecap="round" stroke-linejoin="round"/>
<path d="M1112.72 4598.28C1112.72 4598.28 1112.72 4598.28 1112.72 4596.04C1112.79 4574.31 1120.54 4553.31 1134.59 4536.74C1148.64 4520.17 1168.1 4509.1 1189.52 4505.48" stroke="#2E353A" stroke-width="0.5" stroke-linecap="round" stroke-linejoin="round"/>
<path d="M8770.32 8601.48H5918.8V10555.1H8770.32V8601.48Z" fill="#2E353A" stroke="#2E353A" stroke-miterlimit="10"/>
<path d="M9198.16 11418.8H5491.28L5918.8 10555.1H8770.32L9198.16 11418.8Z" fill="white" stroke="#2E353A" stroke-linecap="round" stroke-linejoin="round"/>
<path d="M8597.52 8756.04H6091.6V10400.5H8597.52V8756.04Z" fill="white" stroke="#2E353A" stroke-miterlimit="10"/>
<path d="M7720.08 9420.36L7345.36 8977.16L6970.64 9420.36H7127.44V10114.4H7563.28V9420.36H7720.08Z" fill="#C0A9C2"/>
<path d="M7225.68 10828.7L7230.48 10723.4H7080.08L7069.84 10828.7H7225.68Z" fill="white" stroke="#2E353A" stroke-miterlimit="10"/>
<path d="M7537.04 10828.7L7531.92 10723.4H7381.2L7381.52 10828.7H7537.04Z" fill="white" stroke="#2E353A" stroke-miterlimit="10"/>
<path d="M8347.92 10941H8509.2L8471.12 10828.7H8315.6L8347.92 10941Z" fill="white" stroke="#2E353A" stroke-miterlimit="10"/>
<path d="M7069.84 10828.7L7080.08 10723.4H6929.36L6914.32 10828.7H7069.84Z" fill="white" stroke="#2E353A" stroke-miterlimit="10"/>
<path d="M6758.48 10828.7L6778.64 10723.4H6627.92L6602.96 10828.7H6758.48Z" fill="white" stroke="#2E353A" stroke-miterlimit="10"/>
<path d="M8159.76 10828.7L8134.48 10723.4H7983.76L8004.24 10828.7H8159.76Z" fill="white" stroke="#2E353A" stroke-miterlimit="10"/>
<path d="M8315.6 10828.7L8285.2 10723.4H8134.48L8159.76 10828.7H8315.6Z" fill="white" stroke="#2E353A" stroke-miterlimit="10"/>
<path d="M6602.96 10828.7L6627.92 10723.4H6477.2L6447.12 10828.7H6602.96Z" fill="white" stroke="#2E353A" stroke-miterlimit="10"/>
<path d="M7692.88 10828.7L7682.64 10723.4H7531.92L7537.04 10828.7H7692.88Z" fill="white" stroke="#2E353A" stroke-miterlimit="10"/>
<path d="M8471.12 10828.7L8435.92 10723.4H8285.2L8315.6 10828.7H8471.12Z" fill="white" stroke="#2E353A" stroke-miterlimit="10"/>
<path d="M8004.24 10828.7L7983.76 10723.4H7833.36L7848.4 10828.7H8004.24Z" fill="white" stroke="#2E353A" stroke-miterlimit="10"/>
<path d="M7848.4 10828.7L7833.36 10723.4H7682.64L7692.88 10828.7H7848.4Z" fill="white" stroke="#2E353A" stroke-miterlimit="10"/>
<path d="M7381.52 10828.7L7381.2 10723.4H7230.48L7225.68 10828.7H7381.52Z" fill="white" stroke="#2E353A" stroke-miterlimit="10"/>
<path d="M6291.6 10828.7H6135.76L6092.88 10941H6253.84L6291.6 10828.7Z" fill="white" stroke="#2E353A" stroke-miterlimit="10"/>
<path d="M6326.48 10723.4H6176.08L6135.76 10828.7H6291.6L6326.48 10723.4Z" fill="white" stroke="#2E353A" stroke-miterlimit="10"/>
<path d="M6447.12 10828.7L6477.2 10723.4H6326.48L6291.6 10828.7H6447.12Z" fill="white" stroke="#2E353A" stroke-miterlimit="10"/>
<path d="M6046.8 11061.6L5997.2 11191.2H6170.32L6213.52 11061.6H6046.8Z" fill="white" stroke="#2E353A" stroke-miterlimit="10"/>
<path d="M6253.84 10941H6092.88L6046.8 11061.6H6213.52L6253.84 10941Z" fill="white" stroke="#2E353A" stroke-miterlimit="10"/>
<path d="M6213.52 11061.6L6170.32 11191.2H6343.44L6380.56 11061.6H6213.52Z" fill="white" stroke="#2E353A" stroke-miterlimit="10"/>
<path d="M6914.32 10828.7L6929.36 10723.4H6778.64L6758.48 10828.7H6914.32Z" fill="white" stroke="#2E353A" stroke-miterlimit="10"/>
<path d="M6898.32 10941L6914.32 10828.7H6758.48L6737.04 10941H6898.32Z" fill="white" stroke="#2E353A" stroke-miterlimit="10"/>
<path d="M6737.04 10941L6758.48 10828.7H6602.96L6576.08 10941H6737.04Z" fill="white" stroke="#2E353A" stroke-miterlimit="10"/>
<path d="M7059.28 10941L7069.84 10828.7H6914.32L6898.32 10941H7059.28Z" fill="white" stroke="#2E353A" stroke-miterlimit="10"/>
<path d="M6447.12 10828.7H6291.6L6253.84 10941H6415.12L6447.12 10828.7Z" fill="white" stroke="#2E353A" stroke-miterlimit="10"/>
<path d="M8382.8 11061.6H8549.52L8509.2 10941H8347.92L8382.8 11061.6Z" fill="white" stroke="#2E353A" stroke-miterlimit="10"/>
<path d="M6576.08 10941L6602.96 10828.7H6447.12L6415.12 10941H6576.08Z" fill="white" stroke="#2E353A" stroke-miterlimit="10"/>
<path d="M6253.84 10941L6213.52 11061.6H6380.56L6415.12 10941H6253.84Z" fill="white" stroke="#2E353A" stroke-miterlimit="10"/>
<path d="M8025.68 10941L8004.24 10828.7H7848.4L7864.72 10941H8025.68Z" fill="white" stroke="#2E353A" stroke-miterlimit="10"/>
<path d="M7864.72 10941L7848.4 10828.7H7692.88L7703.76 10941H7864.72Z" fill="white" stroke="#2E353A" stroke-miterlimit="10"/>
<path d="M8347.92 10941L8315.6 10828.7H8159.76L8186.96 10941H8347.92Z" fill="white" stroke="#2E353A" stroke-miterlimit="10"/>
<path d="M7381.52 10941V10828.7H7225.68L7220.24 10941H7381.52Z" fill="white" stroke="#2E353A" stroke-miterlimit="10"/>
<path d="M7703.76 10941L7692.88 10828.7H7537.04L7542.48 10941H7703.76Z" fill="white" stroke="#2E353A" stroke-miterlimit="10"/>
<path d="M7542.48 10941L7537.04 10828.7H7381.52V10941H7542.48Z" fill="white" stroke="#2E353A" stroke-miterlimit="10"/>
<path d="M7220.24 10941L7225.68 10828.7H7069.84L7059.28 10941H7220.24Z" fill="white" stroke="#2E353A" stroke-miterlimit="10"/>
<path d="M7703.76 10941L7715.28 11061.6H7882.32L7864.72 10941H7703.76Z" fill="white" stroke="#2E353A" stroke-miterlimit="10"/>
<path d="M7864.72 10941L7882.32 11061.6H8049.04L8025.68 10941H7864.72Z" fill="white" stroke="#2E353A" stroke-miterlimit="10"/>
<path d="M6415.12 10941L6380.56 11061.6H6547.28L6576.08 10941H6415.12Z" fill="white" stroke="#2E353A" stroke-miterlimit="10"/>
<path d="M8025.68 10941L8049.04 11061.6H8215.76L8186.96 10941H8025.68Z" fill="white" stroke="#2E353A" stroke-miterlimit="10"/>
<path d="M7381.52 10941V11061.6H7548.56L7542.48 10941H7381.52Z" fill="white" stroke="#2E353A" stroke-miterlimit="10"/>
<path d="M8186.96 10941L8215.76 11061.6H8382.8L8347.92 10941H8186.96Z" fill="white" stroke="#2E353A" stroke-miterlimit="10"/>
<path d="M7542.48 10941L7548.56 11061.6H7715.28L7703.76 10941H7542.48Z" fill="white" stroke="#2E353A" stroke-miterlimit="10"/>
<path d="M6737.04 10941L6714 11061.6H6881.04L6898.32 10941H6737.04Z" fill="white" stroke="#2E353A" stroke-miterlimit="10"/>
<path d="M6576.08 10941L6547.28 11061.6H6714L6737.04 10941H6576.08Z" fill="white" stroke="#2E353A" stroke-miterlimit="10"/>
<path d="M7220.24 10941L7214.8 11061.6H7381.52V10941H7220.24Z" fill="white" stroke="#2E353A" stroke-miterlimit="10"/>
<path d="M7059.28 10941L7047.76 11061.6H7214.8L7220.24 10941H7059.28Z" fill="white" stroke="#2E353A" stroke-miterlimit="10"/>
<path d="M6898.32 10941L6881.04 11061.6H7047.76L7059.28 10941H6898.32Z" fill="white" stroke="#2E353A" stroke-miterlimit="10"/>
<path d="M8186.96 10941L8159.76 10828.7H8004.24L8025.68 10941H8186.96Z" fill="white" stroke="#2E353A" stroke-miterlimit="10"/>
<path d="M6326.48 10723.4L6362.64 10615.6H6217.04L6176.08 10723.4H6326.48Z" fill="white" stroke="#2E353A" stroke-miterlimit="10"/>
<path d="M6176.08 10723.4H6036.88L5992.08 10828.7H6135.76L6176.08 10723.4Z" fill="white" stroke="#2E353A" stroke-miterlimit="10"/>
<path d="M6217.04 10615.6H6082.96L6036.88 10723.4H6176.08L6217.04 10615.6Z" fill="white" stroke="#2E353A" stroke-miterlimit="10"/>
<path d="M6135.76 10828.7H5992.08L5944.08 10941H6092.88L6135.76 10828.7Z" fill="white" stroke="#2E353A" stroke-miterlimit="10"/>
<path d="M6092.88 10941H5944.08L5892.56 11061.6H6046.8L6092.88 10941Z" fill="white" stroke="#2E353A" stroke-miterlimit="10"/>
<path d="M6046.8 11061.6H5892.56L5837.52 11191.2H5997.2L6046.8 11061.6Z" fill="white" stroke="#2E353A" stroke-miterlimit="10"/>
<path d="M8626.96 10828.7L8670.16 10941H8812.56L8764.56 10828.7H8626.96Z" fill="white" stroke="#2E353A" stroke-miterlimit="10"/>
<path d="M8716.56 11061.6H8864.08L8812.56 10941H8670.16L8716.56 11061.6Z" fill="white" stroke="#2E353A" stroke-miterlimit="10"/>
<path d="M8766.16 11191.2H8919.12L8864.08 11061.6H8716.56L8766.16 11191.2Z" fill="white" stroke="#2E353A" stroke-miterlimit="10"/>
<path d="M7531.92 10723.4L7526.8 10615.6H7381.2V10723.4H7531.92Z" fill="white" stroke="#2E353A" stroke-miterlimit="10"/>
<path d="M8626.96 10828.7H8764.56L8719.76 10723.4H8586.64L8626.96 10828.7Z" fill="white" stroke="#2E353A" stroke-miterlimit="10"/>
<path d="M8549.52 11061.6H8716.56L8670.16 10941H8509.2L8549.52 11061.6Z" fill="white" stroke="#2E353A" stroke-miterlimit="10"/>
<path d="M6477.2 10723.4L6508.24 10615.6H6362.64L6326.48 10723.4H6477.2Z" fill="white" stroke="#2E353A" stroke-miterlimit="10"/>
<path d="M8435.92 10723.4L8471.12 10828.7H8626.96L8586.64 10723.4H8435.92Z" fill="white" stroke="#2E353A" stroke-miterlimit="10"/>
<path d="M8719.76 10723.4L8674 10615.6H8545.04L8586.64 10723.4H8719.76Z" fill="white" stroke="#2E353A" stroke-miterlimit="10"/>
<path d="M8586.64 10723.4L8545.04 10615.6H8399.76L8435.92 10723.4H8586.64Z" fill="white" stroke="#2E353A" stroke-miterlimit="10"/>
<path d="M8049.04 11061.6L8074 11191.2H8247.12L8215.76 11061.6H8049.04Z" fill="white" stroke="#2E353A" stroke-miterlimit="10"/>
<path d="M8593.04 11191.2H8766.16L8716.56 11061.6H8549.52L8593.04 11191.2Z" fill="white" stroke="#2E353A" stroke-miterlimit="10"/>
<path d="M8435.92 10723.4L8399.76 10615.6H8254.16L8285.2 10723.4H8435.92Z" fill="white" stroke="#2E353A" stroke-miterlimit="10"/>
<path d="M8382.8 11061.6L8419.92 11191.2H8593.04L8549.52 11061.6H8382.8Z" fill="white" stroke="#2E353A" stroke-miterlimit="10"/>
<path d="M8215.76 11061.6L8247.12 11191.2H8419.92L8382.8 11061.6H8215.76Z" fill="white" stroke="#2E353A" stroke-miterlimit="10"/>
<path d="M8509.2 10941H8670.16L8626.96 10828.7H8471.12L8509.2 10941Z" fill="white" stroke="#2E353A" stroke-miterlimit="10"/>
<path d="M7080.08 10723.4L7090.32 10615.6H6944.72L6929.36 10723.4H7080.08Z" fill="white" stroke="#2E353A" stroke-miterlimit="10"/>
<path d="M8285.2 10723.4L8254.16 10615.6H8108.56L8134.48 10723.4H8285.2Z" fill="white" stroke="#2E353A" stroke-miterlimit="10"/>
<path d="M6929.36 10723.4L6944.72 10615.6H6799.12L6778.64 10723.4H6929.36Z" fill="white" stroke="#2E353A" stroke-miterlimit="10"/>
<path d="M7381.2 10723.4V10615.6H7235.6L7230.48 10723.4H7381.2Z" fill="white" stroke="#2E353A" stroke-miterlimit="10"/>
<path d="M6778.64 10723.4L6799.12 10615.6H6653.52L6627.92 10723.4H6778.64Z" fill="white" stroke="#2E353A" stroke-miterlimit="10"/>
<path d="M6627.92 10723.4L6653.52 10615.6H6508.24L6477.2 10723.4H6627.92Z" fill="white" stroke="#2E353A" stroke-miterlimit="10"/>
<path d="M7230.48 10723.4L7235.6 10615.6H7090.32L7080.08 10723.4H7230.48Z" fill="white" stroke="#2E353A" stroke-miterlimit="10"/>
<path d="M8134.48 10723.4L8108.56 10615.6H7963.28L7983.76 10723.4H8134.48Z" fill="white" stroke="#2E353A" stroke-miterlimit="10"/>
<path d="M7983.76 10723.4L7963.28 10615.6H7817.68L7833.36 10723.4H7983.76Z" fill="white" stroke="#2E353A" stroke-miterlimit="10"/>
<path d="M7682.64 10723.4L7672.08 10615.6H7526.8L7531.92 10723.4H7682.64Z" fill="white" stroke="#2E353A" stroke-miterlimit="10"/>
<path d="M8049.04 11061.6H7882.32H7715.28H7548.56H7381.52H7214.8H7047.76H6881.04H6714H6547.28H6380.56L6343.44 11191.2H6516.56H6689.36H6862.48H7035.6H7208.72H7381.52H7554.64H7727.76H7900.88H8074L8049.04 11061.6Z" fill="white" stroke="#2E353A" stroke-miterlimit="10"/>
<path d="M7833.36 10723.4L7817.68 10615.6H7672.08L7682.64 10723.4H7833.36Z" fill="white" stroke="#2E353A" stroke-miterlimit="10"/>
<path d="M9199.76 11418.8H5491.28V11471.2H9199.76V11418.8Z" fill="#2E353A" stroke="#2E353A" stroke-miterlimit="10"/>
<path d="M9819.6 8601.48H11995.6V10555.1H9819.6C9805.85 10555.1 9792.67 10549.6 9782.94 10539.9C9773.22 10530.2 9767.76 10517 9767.76 10503.2V8653.64C9767.72 8646.81 9769.03 8640.03 9771.61 8633.7C9774.2 8627.38 9778.01 8621.62 9782.83 8616.78C9787.65 8611.93 9793.38 8608.08 9799.69 8605.46C9806 8602.83 9812.77 8601.48 9819.6 8601.48V8601.48Z" fill="white" stroke="#2E353A" stroke-linecap="round" stroke-linejoin="round"/>
<path d="M12070.5 8601.48H9826.32V10555.1H12070.5V8601.48Z" fill="#2E353A" stroke="#2E353A" stroke-miterlimit="10"/>
<path d="M11947.9 8756.04H9999.12V10400.5H11947.9V8756.04Z" fill="white" stroke="#2E353A" stroke-linecap="round" stroke-linejoin="round"/>
<path d="M10664.7 9420.36L10955.3 8977.16L11245.8 9420.36H11124.2V10114.4H10786.3V9420.36H10664.7Z" fill="#C0A9C2"/>
<path d="M9826.32 10555.1L11527.4 11046.9H13820.9L12070.5 10555.1H9826.32Z" fill="white" stroke="#2E353A" stroke-linecap="round" stroke-linejoin="round"/>
<path d="M11643 10749.6L11430.2 10689.2L11337 10688.2L11549.2 10749L11643 10749.6Z" fill="white" stroke="#2E353A" stroke-width="0.25" stroke-miterlimit="10"/>
<path d="M11828.2 10751.2L11614.8 10691.1L11523 10690.1L11735.8 10750.6L11828.2 10751.2Z" fill="white" stroke="#2E353A" stroke-width="0.25" stroke-miterlimit="10"/>
<path d="M12500.9 10814.9L12589.8 10815.6L12368.7 10755.1L12280.1 10754.4L12500.9 10814.9Z" fill="white" stroke="#2E353A" stroke-width="0.25" stroke-miterlimit="10"/>
<path d="M11549.2 10749L11337 10688.2L11243.3 10687.2L11454.8 10748.4L11549.2 10749Z" fill="white" stroke="#2E353A" stroke-width="0.25" stroke-miterlimit="10"/>
<path d="M11360.1 10747.7L11148.6 10686.6L11053.5 10685.6L11264.4 10747.1L11360.1 10747.7Z" fill="white" stroke="#2E353A" stroke-width="0.25" stroke-miterlimit="10"/>
<path d="M12191.1 10753.8L11976.1 10694.3L11886.8 10693.6L12101.2 10753.2L12191.1 10753.8Z" fill="white" stroke="#2E353A" stroke-width="0.25" stroke-miterlimit="10"/>
<path d="M12280.1 10754.4L12064.7 10695.2L11976.1 10694.3L12191.1 10753.8L12280.1 10754.4Z" fill="white" stroke="#2E353A" stroke-width="0.25" stroke-miterlimit="10"/>
<path d="M11264.4 10747.1L11053.5 10685.6L10957.5 10684.7L11167.8 10746.4L11264.4 10747.1Z" fill="white" stroke="#2E353A" stroke-width="0.25" stroke-miterlimit="10"/>
<path d="M11919.8 10751.9L11706 10691.7L11614.8 10691.1L11828.2 10751.2L11919.8 10751.9Z" fill="white" stroke="#2E353A" stroke-width="0.25" stroke-miterlimit="10"/>
<path d="M12368.7 10755.1L12153 10696.2L12064.7 10695.2L12280.1 10754.4L12368.7 10755.1Z" fill="white" stroke="#2E353A" stroke-width="0.25" stroke-miterlimit="10"/>
<path d="M12101.2 10753.2L11886.8 10693.6L11796.6 10692.7L12011 10752.5L12101.2 10753.2Z" fill="white" stroke="#2E353A" stroke-width="0.25" stroke-miterlimit="10"/>
<path d="M12011 10752.5L11796.6 10692.7L11706 10691.7L11919.8 10751.9L12011 10752.5Z" fill="white" stroke="#2E353A" stroke-width="0.25" stroke-miterlimit="10"/>
<path d="M11735.8 10750.6L11523 10690.1L11430.2 10689.2L11643 10749.6L11735.8 10750.6Z" fill="white" stroke="#2E353A" stroke-width="0.25" stroke-miterlimit="10"/>
<path d="M11070.8 10745.5L10972.9 10744.8L11187.9 10808.5L11286.2 10809.2L11070.8 10745.5Z" fill="white" stroke="#2E353A" stroke-width="0.25" stroke-miterlimit="10"/>
<path d="M10860.9 10683.7L10763.6 10682.8L10972.9 10744.8L11070.8 10745.5L10860.9 10683.7Z" fill="white" stroke="#2E353A" stroke-width="0.25" stroke-miterlimit="10"/>
<path d="M11167.8 10746.4L10957.5 10684.7L10860.9 10683.7L11070.8 10745.5L11167.8 10746.4Z" fill="white" stroke="#2E353A" stroke-width="0.25" stroke-miterlimit="10"/>
<path d="M11408.4 10873.8L11635.3 10941H11734.5L11507.3 10874.1L11408.4 10873.8Z" fill="white" stroke="#2E353A" stroke-width="0.25" stroke-miterlimit="10"/>
<path d="M11286.2 10809.2L11187.9 10808.5L11408.4 10873.8L11507.3 10874.1L11286.2 10809.2Z" fill="white" stroke="#2E353A" stroke-width="0.25" stroke-miterlimit="10"/>
<path d="M11507.3 10874.1L11734.5 10941H11833L11605.2 10874.4L11507.3 10874.1Z" fill="white" stroke="#2E353A" stroke-width="0.25" stroke-miterlimit="10"/>
<path d="M11454.8 10748.4L11243.3 10687.2L11148.6 10686.6L11360.1 10747.7L11454.8 10748.4Z" fill="white" stroke="#2E353A" stroke-width="0.25" stroke-miterlimit="10"/>
<path d="M11672.1 10811.1L11454.8 10748.4L11360.1 10747.7L11576.7 10810.4L11672.1 10811.1Z" fill="white" stroke="#2E353A" stroke-width="0.25" stroke-miterlimit="10"/>
<path d="M11576.7 10810.4L11360.1 10747.7L11264.4 10747.1L11480.7 10810.1L11576.7 10810.4Z" fill="white" stroke="#2E353A" stroke-width="0.25" stroke-miterlimit="10"/>
<path d="M11766.8 10811.4L11549.2 10749L11454.8 10748.4L11672.1 10811.1L11766.8 10811.4Z" fill="white" stroke="#2E353A" stroke-width="0.25" stroke-miterlimit="10"/>
<path d="M11167.8 10746.4L11070.8 10745.5L11286.2 10809.2L11383.8 10809.5L11167.8 10746.4Z" fill="white" stroke="#2E353A" stroke-width="0.25" stroke-miterlimit="10"/>
<path d="M12727.4 10877.3L12816.4 10877.6L12589.8 10815.6L12500.9 10814.9L12727.4 10877.3Z" fill="white" stroke="#2E353A" stroke-width="0.25" stroke-miterlimit="10"/>
<path d="M11480.7 10810.1L11264.4 10747.1L11167.8 10746.4L11383.8 10809.5L11480.7 10810.1Z" fill="white" stroke="#2E353A" stroke-width="0.25" stroke-miterlimit="10"/>
<path d="M11286.2 10809.2L11507.3 10874.1L11605.2 10874.4L11383.8 10809.5L11286.2 10809.2Z" fill="white" stroke="#2E353A" stroke-width="0.25" stroke-miterlimit="10"/>
<path d="M12321.4 10814.3L12101.2 10753.2L12011 10752.5L12230.5 10813.6L12321.4 10814.3Z" fill="white" stroke="#2E353A" stroke-width="0.25" stroke-miterlimit="10"/>
<path d="M12230.5 10813.6L12011 10752.5L11919.8 10751.9L12139.3 10813.3L12230.5 10813.6Z" fill="white" stroke="#2E353A" stroke-width="0.25" stroke-miterlimit="10"/>
<path d="M12500.9 10814.9L12280.1 10754.4L12191.1 10753.8L12411.6 10814.6L12500.9 10814.9Z" fill="white" stroke="#2E353A" stroke-width="0.25" stroke-miterlimit="10"/>
<path d="M11954.3 10812.4L11735.8 10750.6L11643 10749.6L11860.9 10811.7L11954.3 10812.4Z" fill="white" stroke="#2E353A" stroke-width="0.25" stroke-miterlimit="10"/>
<path d="M12139.3 10813.3L11919.8 10751.9L11828.2 10751.2L12047.1 10812.7L12139.3 10813.3Z" fill="white" stroke="#2E353A" stroke-width="0.25" stroke-miterlimit="10"/>
<path d="M12047.1 10812.7L11828.2 10751.2L11735.8 10750.6L11954.3 10812.4L12047.1 10812.7Z" fill="white" stroke="#2E353A" stroke-width="0.25" stroke-miterlimit="10"/>
<path d="M11860.9 10811.7L11643 10749.6L11549.2 10749L11766.8 10811.4L11860.9 10811.7Z" fill="white" stroke="#2E353A" stroke-width="0.25" stroke-miterlimit="10"/>
<path d="M12139.3 10813.3L12364.2 10876.4L12456.1 10876.7L12230.5 10813.6L12139.3 10813.3Z" fill="white" stroke="#2E353A" stroke-width="0.25" stroke-miterlimit="10"/>
<path d="M12230.5 10813.6L12456.1 10876.7L12547 10877L12321.4 10814.3L12230.5 10813.6Z" fill="white" stroke="#2E353A" stroke-width="0.25" stroke-miterlimit="10"/>
<path d="M11383.8 10809.5L11605.2 10874.4L11702.8 10874.8L11480.7 10810.1L11383.8 10809.5Z" fill="white" stroke="#2E353A" stroke-width="0.25" stroke-miterlimit="10"/>
<path d="M12321.4 10814.3L12547 10877H12637.5L12411.6 10814.6L12321.4 10814.3Z" fill="white" stroke="#2E353A" stroke-width="0.25" stroke-miterlimit="10"/>
<path d="M11954.3 10812.4L12178.6 10875.7L12271.8 10876L12047.1 10812.7L11954.3 10812.4Z" fill="white" stroke="#2E353A" stroke-width="0.25" stroke-miterlimit="10"/>
<path d="M12411.6 10814.6L12637.5 10877L12727.4 10877.3L12500.9 10814.9L12411.6 10814.6Z" fill="white" stroke="#2E353A" stroke-width="0.25" stroke-miterlimit="10"/>
<path d="M12047.1 10812.7L12271.8 10876L12364.2 10876.4L12139.3 10813.3L12047.1 10812.7Z" fill="white" stroke="#2E353A" stroke-width="0.25" stroke-miterlimit="10"/>
<path d="M11576.7 10810.4L11799.1 10875.1H11895.1L11672.1 10811.1L11576.7 10810.4Z" fill="white" stroke="#2E353A" stroke-width="0.25" stroke-miterlimit="10"/>
<path d="M11480.7 10810.1L11702.8 10874.8L11799.1 10875.1L11576.7 10810.4L11480.7 10810.1Z" fill="white" stroke="#2E353A" stroke-width="0.25" stroke-miterlimit="10"/>
<path d="M11860.9 10811.7L12084.9 10875.7H12178.6L11954.3 10812.4L11860.9 10811.7Z" fill="white" stroke="#2E353A" stroke-width="0.25" stroke-miterlimit="10"/>
<path d="M11766.8 10811.4L11990.5 10875.4L12084.9 10875.7L11860.9 10811.7L11766.8 10811.4Z" fill="white" stroke="#2E353A" stroke-width="0.25" stroke-miterlimit="10"/>
<path d="M11672.1 10811.1L11895.1 10875.1L11990.5 10875.4L11766.8 10811.4L11672.1 10811.1Z" fill="white" stroke="#2E353A" stroke-width="0.25" stroke-miterlimit="10"/>
<path d="M12411.6 10814.6L12191.1 10753.8L12101.2 10753.2L12321.4 10814.3L12411.6 10814.6Z" fill="white" stroke="#2E353A" stroke-width="0.25" stroke-miterlimit="10"/>
<path d="M10860.9 10683.7L10637.2 10617.8L10540.6 10616.8L10763.6 10682.8L10860.9 10683.7Z" fill="white" stroke="#2E353A" stroke-width="0.25" stroke-miterlimit="10"/>
<path d="M10763.6 10682.8L10673 10681.8L10882 10744.2L10972.9 10744.8L10763.6 10682.8Z" fill="white" stroke="#2E353A" stroke-width="0.25" stroke-miterlimit="10"/>
<path d="M10540.6 10616.8L10450.6 10615.6L10673 10681.8L10763.6 10682.8L10540.6 10616.8Z" fill="white" stroke="#2E353A" stroke-width="0.25" stroke-miterlimit="10"/>
<path d="M10972.9 10744.8L10882 10744.2L11096.4 10808.2L11187.9 10808.5L10972.9 10744.8Z" fill="white" stroke="#2E353A" stroke-width="0.25" stroke-miterlimit="10"/>
<path d="M11187.9 10808.5L11096.4 10808.2L11316.6 10873.8H11408.4L11187.9 10808.5Z" fill="white" stroke="#2E353A" stroke-width="0.25" stroke-miterlimit="10"/>
<path d="M11408.4 10873.8H11316.6L11542.8 10941H11635.3L11408.4 10873.8Z" fill="white" stroke="#2E353A" stroke-width="0.25" stroke-miterlimit="10"/>
<path d="M12456.7 10755.7L12678.2 10815.9L12755.6 10816.5L12533.8 10756.4L12456.7 10755.7Z" fill="white" stroke="#2E353A" stroke-width="0.25" stroke-miterlimit="10"/>
<path d="M12905 10877.6L12982.8 10878L12755.6 10816.5L12678.2 10815.9L12905 10877.6Z" fill="white" stroke="#2E353A" stroke-width="0.25" stroke-miterlimit="10"/>
<path d="M13138 10941H13215.8L12982.8 10878L12905 10877.6L13138 10941Z" fill="white" stroke="#2E353A" stroke-width="0.25" stroke-miterlimit="10"/>
<path d="M11614.8 10691.1L11387 10626.8L11295.4 10625.8L11523 10690.1L11614.8 10691.1Z" fill="white" stroke="#2E353A" stroke-width="0.25" stroke-miterlimit="10"/>
<path d="M12456.7 10755.7L12533.8 10756.4L12317.5 10697.8L12240.4 10696.8L12456.7 10755.7Z" fill="white" stroke="#2E353A" stroke-width="0.25" stroke-miterlimit="10"/>
<path d="M12816.4 10877.6H12905L12678.2 10815.9L12589.8 10815.6L12816.4 10877.6Z" fill="white" stroke="#2E353A" stroke-width="0.25" stroke-miterlimit="10"/>
<path d="M10957.5 10684.7L10733.2 10619.1L10637.2 10617.8L10860.9 10683.7L10957.5 10684.7Z" fill="white" stroke="#2E353A" stroke-width="0.25" stroke-miterlimit="10"/>
<path d="M12153 10696.2L12368.7 10755.1L12456.7 10755.7L12240.4 10696.8L12153 10696.2Z" fill="white" stroke="#2E353A" stroke-width="0.25" stroke-miterlimit="10"/>
<path d="M12317.5 10697.8L12086.5 10635.1L12010 10634.1L12240.4 10696.8L12317.5 10697.8Z" fill="white" stroke="#2E353A" stroke-width="0.25" stroke-miterlimit="10"/>
<path d="M12240.4 10696.8L12010 10634.1L11922.6 10633.2L12153 10696.2L12240.4 10696.8Z" fill="white" stroke="#2E353A" stroke-width="0.25" stroke-miterlimit="10"/>
<path d="M12547 10877L12778.6 10941H12869.5L12637.5 10877H12547Z" fill="white" stroke="#2E353A" stroke-width="0.25" stroke-miterlimit="10"/>
<path d="M13049 10941H13138L12905 10877.6H12816.4L13049 10941Z" fill="white" stroke="#2E353A" stroke-width="0.25" stroke-miterlimit="10"/>
<path d="M12153 10696.2L11922.6 10633.2L11835 10632.2L12064.7 10695.2L12153 10696.2Z" fill="white" stroke="#2E353A" stroke-width="0.25" stroke-miterlimit="10"/>
<path d="M12727.4 10877.3L12959.4 10941H13049L12816.4 10877.6L12727.4 10877.3Z" fill="white" stroke="#2E353A" stroke-width="0.25" stroke-miterlimit="10"/>
<path d="M12637.5 10877L12869.5 10941H12959.4L12727.4 10877.3L12637.5 10877Z" fill="white" stroke="#2E353A" stroke-width="0.25" stroke-miterlimit="10"/>
<path d="M12589.8 10815.6L12678.2 10815.9L12456.7 10755.7L12368.7 10755.1L12589.8 10815.6Z" fill="white" stroke="#2E353A" stroke-width="0.25" stroke-miterlimit="10"/>
<path d="M11337 10688.2L11110.8 10623.6L11017.4 10622.3L11243.3 10687.2L11337 10688.2Z" fill="white" stroke="#2E353A" stroke-width="0.25" stroke-miterlimit="10"/>
<path d="M12064.7 10695.2L11835 10632.2L11746.6 10630.9L11976.1 10694.3L12064.7 10695.2Z" fill="white" stroke="#2E353A" stroke-width="0.25" stroke-miterlimit="10"/>
<path d="M11243.3 10687.2L11017.4 10622.3L10923.3 10621.3L11148.6 10686.6L11243.3 10687.2Z" fill="white" stroke="#2E353A" stroke-width="0.25" stroke-miterlimit="10"/>
<path d="M11523 10690.1L11295.4 10625.8L11203.6 10624.5L11430.2 10689.2L11523 10690.1Z" fill="white" stroke="#2E353A" stroke-width="0.25" stroke-miterlimit="10"/>
<path d="M11148.6 10686.6L10923.3 10621.3L10828.6 10620L11053.5 10685.6L11148.6 10686.6Z" fill="white" stroke="#2E353A" stroke-width="0.25" stroke-miterlimit="10"/>
<path d="M11053.5 10685.6L10828.6 10620L10733.2 10619.1L10957.5 10684.7L11053.5 10685.6Z" fill="white" stroke="#2E353A" stroke-width="0.25" stroke-miterlimit="10"/>
<path d="M11430.2 10689.2L11203.6 10624.5L11110.8 10623.6L11337 10688.2L11430.2 10689.2Z" fill="white" stroke="#2E353A" stroke-width="0.25" stroke-miterlimit="10"/>
<path d="M11976.1 10694.3L11746.6 10630.9L11657.7 10630L11886.8 10693.6L11976.1 10694.3Z" fill="white" stroke="#2E353A" stroke-width="0.25" stroke-miterlimit="10"/>
<path d="M11886.8 10693.6L11657.7 10630L11568.1 10629L11796.6 10692.7L11886.8 10693.6Z" fill="white" stroke="#2E353A" stroke-width="0.25" stroke-miterlimit="10"/>
<path d="M11706 10691.7L11477.8 10627.7L11387 10626.8L11614.8 10691.1L11706 10691.7Z" fill="white" stroke="#2E353A" stroke-width="0.25" stroke-miterlimit="10"/>
<path d="M12547 10877L12456.1 10876.7L12364.2 10876.4L12271.8 10876L12178.6 10875.7H12084.9L11990.5 10875.4L11895.1 10875.1H11799.1L11702.8 10874.8L11605.2 10874.4L11833 10941H11930.6H12027.9H12124.2H12219.6H12314.6H12408.7H12502.2H12595H12687.1H12778.6L12547 10877Z" fill="white" stroke="#2E353A" stroke-width="0.25" stroke-miterlimit="10"/>
<path d="M11796.6 10692.7L11568.1 10629L11477.8 10627.7L11706 10691.7L11796.6 10692.7Z" fill="white" stroke="#2E353A" stroke-width="0.25" stroke-miterlimit="10"/>
<path d="M9826.32 10555.1V10620.4L11526.8 11130.8L11527.4 11046.9L9826.32 10555.1Z" fill="white" stroke="#2E353A" stroke-linecap="round" stroke-linejoin="round"/>
<path d="M13820.9 11046.9H11527.4V11130.4H13820.9V11046.9Z" fill="#2E353A" stroke="#2E353A" stroke-linecap="round" stroke-linejoin="round"/>
<path d="M4785.36 10555.1H2609.36L2609.36 8601.48H4785.36C4799.11 8601.48 4812.29 8606.94 4822.02 8616.66C4831.74 8626.38 4837.2 8639.57 4837.2 8653.32V10502.9C4837.24 10509.8 4835.93 10516.5 4833.35 10522.9C4830.76 10529.2 4826.95 10534.9 4822.13 10539.8C4817.31 10544.6 4811.58 10548.5 4805.27 10551.1C4798.96 10553.7 4792.19 10555.1 4785.36 10555.1V10555.1Z" fill="white" stroke="#2E353A" stroke-linecap="round" stroke-linejoin="round"/>
<path d="M2534.48 10555.1H4778.64V8601.48H2534.48L2534.48 10555.1Z" fill="#2E353A" stroke="#2E353A" stroke-miterlimit="10"/>
<path d="M2657.04 10400.5H4605.84V8756.04H2657.04V10400.5Z" fill="white" stroke="#2E353A" stroke-linecap="round" stroke-linejoin="round"/>
<path d="M3818.32 9420.36L3527.76 8977.16L3237.2 9420.36H3358.8V10114.4H3696.72V9420.36H3818.32Z" fill="#C0A9C2"/>
<path d="M4778.64 10555.1L3077.52 11046.9H784.08L2534.48 10555.1H4778.64Z" fill="white" stroke="#2E353A" stroke-linecap="round" stroke-linejoin="round"/>
<path d="M2962 10749.6L3174.8 10689.2L3267.92 10688.2L3055.76 10749L2962 10749.6Z" fill="white" stroke="#2E353A" stroke-width="0.25" stroke-miterlimit="10"/>
<path d="M2776.72 10751.2L2990.16 10691.1L3082 10690.1L2869.2 10750.6L2776.72 10751.2Z" fill="white" stroke="#2E353A" stroke-width="0.25" stroke-miterlimit="10"/>
<path d="M2104.08 10814.9L2015.12 10815.6L2236.24 10755.1L2324.88 10754.4L2104.08 10814.9Z" fill="white" stroke="#2E353A" stroke-width="0.25" stroke-miterlimit="10"/>
<path d="M3055.76 10749L3267.92 10688.2L3361.68 10687.2L3150.16 10748.4L3055.76 10749Z" fill="white" stroke="#2E353A" stroke-width="0.25" stroke-miterlimit="10"/>
<path d="M3244.88 10747.7L3456.4 10686.6L3551.44 10685.6L3340.56 10747.1L3244.88 10747.7Z" fill="white" stroke="#2E353A" stroke-width="0.25" stroke-miterlimit="10"/>
<path d="M2413.84 10753.8L2628.88 10694.3L2718.16 10693.6L2503.76 10753.2L2413.84 10753.8Z" fill="white" stroke="#2E353A" stroke-width="0.25" stroke-miterlimit="10"/>
<path d="M2324.88 10754.4L2540.24 10695.2L2628.88 10694.3L2413.84 10753.8L2324.88 10754.4Z" fill="white" stroke="#2E353A" stroke-width="0.25" stroke-miterlimit="10"/>
<path d="M3340.56 10747.1L3551.44 10685.6L3647.44 10684.7L3437.2 10746.4L3340.56 10747.1Z" fill="white" stroke="#2E353A" stroke-width="0.25" stroke-miterlimit="10"/>
<path d="M2685.2 10751.9L2898.96 10691.7L2990.16 10691.1L2776.72 10751.2L2685.2 10751.9Z" fill="white" stroke="#2E353A" stroke-width="0.25" stroke-miterlimit="10"/>
<path d="M2236.24 10755.1L2451.92 10696.2L2540.24 10695.2L2324.88 10754.4L2236.24 10755.1Z" fill="white" stroke="#2E353A" stroke-width="0.25" stroke-miterlimit="10"/>
<path d="M2503.76 10753.2L2718.16 10693.6L2808.4 10692.7L2594 10752.5L2503.76 10753.2Z" fill="white" stroke="#2E353A" stroke-width="0.25" stroke-miterlimit="10"/>
<path d="M2594 10752.5L2808.4 10692.7L2898.96 10691.7L2685.2 10751.9L2594 10752.5Z" fill="white" stroke="#2E353A" stroke-width="0.25" stroke-miterlimit="10"/>
<path d="M2869.2 10750.6L3082 10690.1L3174.8 10689.2L2962 10749.6L2869.2 10750.6Z" fill="white" stroke="#2E353A" stroke-width="0.25" stroke-miterlimit="10"/>
<path d="M3534.16 10745.5L3632.08 10744.8L3417.04 10808.5L3318.8 10809.2L3534.16 10745.5Z" fill="white" stroke="#2E353A" stroke-width="0.25" stroke-miterlimit="10"/>
<path d="M3744.08 10683.7L3841.36 10682.8L3632.08 10744.8L3534.16 10745.5L3744.08 10683.7Z" fill="white" stroke="#2E353A" stroke-width="0.25" stroke-miterlimit="10"/>
<path d="M3437.2 10746.4L3647.44 10684.7L3744.08 10683.7L3534.16 10745.5L3437.2 10746.4Z" fill="white" stroke="#2E353A" stroke-width="0.25" stroke-miterlimit="10"/>
<path d="M3196.56 10873.8L2969.68 10941H2870.48L3097.68 10874.1L3196.56 10873.8Z" fill="white" stroke="#2E353A" stroke-width="0.25" stroke-miterlimit="10"/>
<path d="M3318.8 10809.2L3417.04 10808.5L3196.56 10873.8L3097.68 10874.1L3318.8 10809.2Z" fill="white" stroke="#2E353A" stroke-width="0.25" stroke-miterlimit="10"/>
<path d="M3097.68 10874.1L2870.48 10941H2771.92L2999.44 10874.4L3097.68 10874.1Z" fill="white" stroke="#2E353A" stroke-width="0.25" stroke-miterlimit="10"/>
<path d="M3150.16 10748.4L3361.68 10687.2L3456.4 10686.6L3244.88 10747.7L3150.16 10748.4Z" fill="white" stroke="#2E353A" stroke-width="0.25" stroke-miterlimit="10"/>
<path d="M2932.88 10811.1L3150.16 10748.4L3244.88 10747.7L3028.24 10810.4L2932.88 10811.1Z" fill="white" stroke="#2E353A" stroke-width="0.25" stroke-miterlimit="10"/>
<path d="M3028.24 10810.4L3244.88 10747.7L3340.56 10747.1L3124.24 10810.1L3028.24 10810.4Z" fill="white" stroke="#2E353A" stroke-width="0.25" stroke-miterlimit="10"/>
<path d="M2838.16 10811.4L3055.76 10749L3150.16 10748.4L2932.88 10811.1L2838.16 10811.4Z" fill="white" stroke="#2E353A" stroke-width="0.25" stroke-miterlimit="10"/>
<path d="M3437.2 10746.4L3534.16 10745.5L3318.8 10809.2L3221.2 10809.5L3437.2 10746.4Z" fill="white" stroke="#2E353A" stroke-width="0.25" stroke-miterlimit="10"/>
<path d="M1877.52 10877.3L1788.56 10877.6L2015.12 10815.6L2104.08 10814.9L1877.52 10877.3Z" fill="white" stroke="#2E353A" stroke-width="0.25" stroke-miterlimit="10"/>
<path d="M3124.24 10810.1L3340.56 10747.1L3437.2 10746.4L3221.2 10809.5L3124.24 10810.1Z" fill="white" stroke="#2E353A" stroke-width="0.25" stroke-miterlimit="10"/>
<path d="M3318.8 10809.2L3097.68 10874.1L2999.44 10874.4L3221.2 10809.5L3318.8 10809.2Z" fill="white" stroke="#2E353A" stroke-width="0.25" stroke-miterlimit="10"/>
<path d="M2283.6 10814.3L2503.76 10753.2L2594 10752.5L2374.48 10813.6L2283.6 10814.3Z" fill="white" stroke="#2E353A" stroke-width="0.25" stroke-miterlimit="10"/>
<path d="M2374.48 10813.6L2594 10752.5L2685.2 10751.9L2465.68 10813.3L2374.48 10813.6Z" fill="white" stroke="#2E353A" stroke-width="0.25" stroke-miterlimit="10"/>
<path d="M2104.08 10814.9L2324.88 10754.4L2413.84 10753.8L2193.36 10814.6L2104.08 10814.9Z" fill="white" stroke="#2E353A" stroke-width="0.25" stroke-miterlimit="10"/>
<path d="M2650.64 10812.4L2869.2 10750.6L2962 10749.6L2744.08 10811.7L2650.64 10812.4Z" fill="white" stroke="#2E353A" stroke-width="0.25" stroke-miterlimit="10"/>
<path d="M2465.68 10813.3L2685.2 10751.9L2776.72 10751.2L2557.84 10812.7L2465.68 10813.3Z" fill="white" stroke="#2E353A" stroke-width="0.25" stroke-miterlimit="10"/>
<path d="M2557.84 10812.7L2776.72 10751.2L2869.2 10750.6L2650.64 10812.4L2557.84 10812.7Z" fill="white" stroke="#2E353A" stroke-width="0.25" stroke-miterlimit="10"/>
<path d="M2744.08 10811.7L2962 10749.6L3055.76 10749L2838.16 10811.4L2744.08 10811.7Z" fill="white" stroke="#2E353A" stroke-width="0.25" stroke-miterlimit="10"/>
<path d="M2465.68 10813.3L2240.72 10876.4L2148.88 10876.7L2374.48 10813.6L2465.68 10813.3Z" fill="white" stroke="#2E353A" stroke-width="0.25" stroke-miterlimit="10"/>
<path d="M2374.48 10813.6L2148.88 10876.7L2058 10877L2283.6 10814.3L2374.48 10813.6Z" fill="white" stroke="#2E353A" stroke-width="0.25" stroke-miterlimit="10"/>
<path d="M3221.2 10809.5L2999.44 10874.4L2902.16 10874.8L3124.24 10810.1L3221.2 10809.5Z" fill="white" stroke="#2E353A" stroke-width="0.25" stroke-miterlimit="10"/>
<path d="M2283.6 10814.3L2058 10877H1967.44L2193.36 10814.6L2283.6 10814.3Z" fill="white" stroke="#2E353A" stroke-width="0.25" stroke-miterlimit="10"/>
<path d="M2650.64 10812.4L2426.32 10875.7L2333.2 10876L2557.84 10812.7L2650.64 10812.4Z" fill="white" stroke="#2E353A" stroke-width="0.25" stroke-miterlimit="10"/>
<path d="M2193.36 10814.6L1967.44 10877L1877.52 10877.3L2104.08 10814.9L2193.36 10814.6Z" fill="white" stroke="#2E353A" stroke-width="0.25" stroke-miterlimit="10"/>
<path d="M2557.84 10812.7L2333.2 10876L2240.72 10876.4L2465.68 10813.3L2557.84 10812.7Z" fill="white" stroke="#2E353A" stroke-width="0.25" stroke-miterlimit="10"/>
<path d="M3028.24 10810.4L2805.84 10875.1H2709.84L2932.88 10811.1L3028.24 10810.4Z" fill="white" stroke="#2E353A" stroke-width="0.25" stroke-miterlimit="10"/>
<path d="M3124.24 10810.1L2902.16 10874.8L2805.84 10875.1L3028.24 10810.4L3124.24 10810.1Z" fill="white" stroke="#2E353A" stroke-width="0.25" stroke-miterlimit="10"/>
<path d="M2744.08 10811.7L2520.08 10875.7H2426.32L2650.64 10812.4L2744.08 10811.7Z" fill="white" stroke="#2E353A" stroke-width="0.25" stroke-miterlimit="10"/>
<path d="M2838.16 10811.4L2614.48 10875.4L2520.08 10875.7L2744.08 10811.7L2838.16 10811.4Z" fill="white" stroke="#2E353A" stroke-width="0.25" stroke-miterlimit="10"/>
<path d="M2932.88 10811.1L2709.84 10875.1L2614.48 10875.4L2838.16 10811.4L2932.88 10811.1Z" fill="white" stroke="#2E353A" stroke-width="0.25" stroke-miterlimit="10"/>
<path d="M2193.36 10814.6L2413.84 10753.8L2503.76 10753.2L2283.6 10814.3L2193.36 10814.6Z" fill="white" stroke="#2E353A" stroke-width="0.25" stroke-miterlimit="10"/>
<path d="M3744.08 10683.7L3967.76 10617.8L4064.4 10616.8L3841.36 10682.8L3744.08 10683.7Z" fill="white" stroke="#2E353A" stroke-width="0.25" stroke-miterlimit="10"/>
<path d="M3841.36 10682.8L3931.92 10681.8L3722.96 10744.2L3632.08 10744.8L3841.36 10682.8Z" fill="white" stroke="#2E353A" stroke-width="0.25" stroke-miterlimit="10"/>
<path d="M4064.4 10616.8L4154.32 10615.6L3931.92 10681.8L3841.36 10682.8L4064.4 10616.8Z" fill="white" stroke="#2E353A" stroke-width="0.25" stroke-miterlimit="10"/>
<path d="M3632.08 10744.8L3722.96 10744.2L3508.56 10808.2L3417.04 10808.5L3632.08 10744.8Z" fill="white" stroke="#2E353A" stroke-width="0.25" stroke-miterlimit="10"/>
<path d="M3417.04 10808.5L3508.56 10808.2L3288.4 10873.8H3196.56L3417.04 10808.5Z" fill="white" stroke="#2E353A" stroke-width="0.25" stroke-miterlimit="10"/>
<path d="M3196.56 10873.8H3288.4L3062.16 10941H2969.68L3196.56 10873.8Z" fill="white" stroke="#2E353A" stroke-width="0.25" stroke-miterlimit="10"/>
<path d="M2148.24 10755.7L1926.8 10815.9L1849.36 10816.5L2071.12 10756.4L2148.24 10755.7Z" fill="white" stroke="#2E353A" stroke-width="0.25" stroke-miterlimit="10"/>
<path d="M1699.92 10877.6L1622.16 10878L1849.36 10816.5L1926.8 10815.9L1699.92 10877.6Z" fill="white" stroke="#2E353A" stroke-width="0.25" stroke-miterlimit="10"/>
<path d="M1466.96 10941H1389.2L1622.16 10878L1699.92 10877.6L1466.96 10941Z" fill="white" stroke="#2E353A" stroke-width="0.25" stroke-miterlimit="10"/>
<path d="M2990.16 10691.1L3218 10626.8L3309.52 10625.8L3082 10690.1L2990.16 10691.1Z" fill="white" stroke="#2E353A" stroke-width="0.25" stroke-miterlimit="10"/>
<path d="M2148.24 10755.7L2071.12 10756.4L2287.44 10697.8L2364.24 10696.8L2148.24 10755.7Z" fill="white" stroke="#2E353A" stroke-width="0.25" stroke-miterlimit="10"/>
<path d="M1788.56 10877.6H1699.92L1926.8 10815.9L2015.12 10815.6L1788.56 10877.6Z" fill="white" stroke="#2E353A" stroke-width="0.25" stroke-miterlimit="10"/>
<path d="M3647.44 10684.7L3871.76 10619.1L3967.76 10617.8L3744.08 10683.7L3647.44 10684.7Z" fill="white" stroke="#2E353A" stroke-width="0.25" stroke-miterlimit="10"/>
<path d="M2451.92 10696.2L2236.24 10755.1L2148.24 10755.7L2364.24 10696.8L2451.92 10696.2Z" fill="white" stroke="#2E353A" stroke-width="0.25" stroke-miterlimit="10"/>
<path d="M2287.44 10697.8L2518.48 10635.1L2594.96 10634.1L2364.24 10696.8L2287.44 10697.8Z" fill="white" stroke="#2E353A" stroke-width="0.25" stroke-miterlimit="10"/>
<path d="M2364.24 10696.8L2594.96 10634.1L2682.32 10633.2L2451.92 10696.2L2364.24 10696.8Z" fill="white" stroke="#2E353A" stroke-width="0.25" stroke-miterlimit="10"/>
<path d="M2058 10877L1826.32 10941H1735.44L1967.44 10877H2058Z" fill="white" stroke="#2E353A" stroke-width="0.25" stroke-miterlimit="10"/>
<path d="M1555.92 10941H1466.96L1699.92 10877.6H1788.56L1555.92 10941Z" fill="white" stroke="#2E353A" stroke-width="0.25" stroke-miterlimit="10"/>
<path d="M2451.92 10696.2L2682.32 10633.2L2770 10632.2L2540.24 10695.2L2451.92 10696.2Z" fill="white" stroke="#2E353A" stroke-width="0.25" stroke-miterlimit="10"/>
<path d="M1877.52 10877.3L1645.52 10941H1555.92L1788.56 10877.6L1877.52 10877.3Z" fill="white" stroke="#2E353A" stroke-width="0.25" stroke-miterlimit="10"/>
<path d="M1967.44 10877L1735.44 10941H1645.52L1877.52 10877.3L1967.44 10877Z" fill="white" stroke="#2E353A" stroke-width="0.25" stroke-miterlimit="10"/>
<path d="M2015.12 10815.6L1926.8 10815.9L2148.24 10755.7L2236.24 10755.1L2015.12 10815.6Z" fill="white" stroke="#2E353A" stroke-width="0.25" stroke-miterlimit="10"/>
<path d="M3267.92 10688.2L3494.16 10623.6L3587.6 10622.3L3361.68 10687.2L3267.92 10688.2Z" fill="white" stroke="#2E353A" stroke-width="0.25" stroke-miterlimit="10"/>
<path d="M2540.24 10695.2L2770 10632.2L2858.32 10630.9L2628.88 10694.3L2540.24 10695.2Z" fill="white" stroke="#2E353A" stroke-width="0.25" stroke-miterlimit="10"/>
<path d="M3361.68 10687.2L3587.6 10622.3L3681.68 10621.3L3456.4 10686.6L3361.68 10687.2Z" fill="white" stroke="#2E353A" stroke-width="0.25" stroke-miterlimit="10"/>
<path d="M3082 10690.1L3309.52 10625.8L3401.36 10624.5L3174.8 10689.2L3082 10690.1Z" fill="white" stroke="#2E353A" stroke-width="0.25" stroke-miterlimit="10"/>
<path d="M3456.4 10686.6L3681.68 10621.3L3776.4 10620L3551.44 10685.6L3456.4 10686.6Z" fill="white" stroke="#2E353A" stroke-width="0.25" stroke-miterlimit="10"/>
<path d="M3551.44 10685.6L3776.4 10620L3871.76 10619.1L3647.44 10684.7L3551.44 10685.6Z" fill="white" stroke="#2E353A" stroke-width="0.25" stroke-miterlimit="10"/>
<path d="M3174.8 10689.2L3401.36 10624.5L3494.16 10623.6L3267.92 10688.2L3174.8 10689.2Z" fill="white" stroke="#2E353A" stroke-width="0.25" stroke-miterlimit="10"/>
<path d="M2628.88 10694.3L2858.32 10630.9L2947.28 10630L2718.16 10693.6L2628.88 10694.3Z" fill="white" stroke="#2E353A" stroke-width="0.25" stroke-miterlimit="10"/>
<path d="M2718.16 10693.6L2947.28 10630L3036.88 10629L2808.4 10692.7L2718.16 10693.6Z" fill="white" stroke="#2E353A" stroke-width="0.25" stroke-miterlimit="10"/>
<path d="M2898.96 10691.7L3127.12 10627.7L3218 10626.8L2990.16 10691.1L2898.96 10691.7Z" fill="white" stroke="#2E353A" stroke-width="0.25" stroke-miterlimit="10"/>
<path d="M2058 10877L2148.88 10876.7L2240.72 10876.4L2333.2 10876L2426.32 10875.7H2520.08L2614.48 10875.4L2709.84 10875.1H2805.84L2902.16 10874.8L2999.44 10874.4L2771.92 10941H2674.32H2577.04H2481.04H2385.36H2290.32H2196.24H2102.8H2010H1917.84H1826.32L2058 10877Z" fill="white" stroke="#2E353A" stroke-width="0.25" stroke-miterlimit="10"/>
<path d="M2808.4 10692.7L3036.88 10629L3127.12 10627.7L2898.96 10691.7L2808.4 10692.7Z" fill="white" stroke="#2E353A" stroke-width="0.25" stroke-miterlimit="10"/>
<path d="M4778.64 10555.1V10620.4L3077.84 11130.8L3077.52 11046.9L4778.64 10555.1Z" fill="white" stroke="#2E353A" stroke-linecap="round" stroke-linejoin="round"/>
<path d="M784.08 11130.8H3077.52V11047.2H784.08V11130.8Z" fill="#2E353A" stroke="#2E353A" stroke-linecap="round" stroke-linejoin="round"/>
</svg>
